<?xml version="1.0" encoding="utf-8"?>
<!-- Generator: Adobe Illustrator 21.1.0, SVG Export Plug-In . SVG Version: 6.00 Build 0)  -->
<svg version="1.1" id="Layer_1" xmlns="http://www.w3.org/2000/svg"  x="0px" y="0px"
	 viewBox="0 0 20 16" style="enable-background:new 0 0 20 16;" xml:space="preserve">
<style type="text/css">
	.st0{fill:#C93D3D;}
	.st1{fill:#FFFFFF;}
</style>
<path class="st0" d="M0.6,13.9L9,0.8c0.5-0.7,1.5-0.7,1.9,0l8.4,13.1c0.5,0.8-0.1,1.8-1,1.8H1.6C0.7,15.7,0.1,14.7,0.6,13.9z"/>
<g>
	<g>
		<path class="st1" d="M9.2,10.1L9.1,4.3c0-0.4,0.2-0.6,0.6-0.6h0.6c0.4,0,0.6,0.2,0.6,0.6l-0.1,5.8c0,0.4-0.2,0.6-0.6,0.6H9.7
			C9.4,10.7,9.2,10.5,9.2,10.1z M9.1,12.4c0-0.4,0.2-0.6,0.6-0.6h0.6c0.4,0,0.6,0.2,0.6,0.6v0.5c0,0.4-0.2,0.6-0.6,0.6H9.7
			c-0.4,0-0.6-0.2-0.6-0.6V12.4z"/>
	</g>
</g>
</svg>
