<svg xmlns="http://www.w3.org/2000/svg" width="23" height="18" viewBox="0 0 23 18">
    <g fill="none" fill-rule="nonzero" transform="translate(1 -3)">
        <path d="M0 0h24v24H0z"/>
        <rect width="20" height="2" x="2" y="3" fill="#FFF" rx="1"/>
        <path fill="#FFF" d="M11 11h10a1 1 0 0 1 0 2H11a1 1 0 0 1 0-2zM1 11h5a1 1 0 0 1 0 2H1a1 1 0 0 1 0-2z"/>
        <rect width="20" height="2" x="2" y="19" fill="#FFF" rx="1"/>
        <path stroke="#FFF" stroke-width="2" d="M4 9l-3 3 3 3"/>
    </g>
</svg>
