<?xml version="1.0" encoding="utf-8"?>
<!-- Generator: Adobe Illustrator 21.0.2, SVG Export Plug-In . SVG Version: 6.00 Build 0)  -->
<svg version="1.1" id="Layer_1" xmlns="http://www.w3.org/2000/svg"  x="0px" y="0px"
	 viewBox="0 0 24 20" style="enable-background:new 0 0 24 20;" xml:space="preserve">
<style type="text/css">
	.st0{fill-rule:evenodd;clip-rule:evenodd;fill:#FFFFFF;}
</style>
<path class="st0" d="M23,11h-4c-0.6,0-1-0.4-1-1c0-0.6,0.4-1,1-1h4c0.6,0,1,0.4,1,1C24,10.6,23.6,11,23,11z M23,2H1C0.4,2,0,1.6,0,1
	c0-0.6,0.4-1,1-1h22c0.6,0,1,0.4,1,1C24,1.6,23.6,2,23,2z M1,9h4c0.6,0,1,0.4,1,1c0,0.6-0.4,1-1,1H1c-0.6,0-1-0.4-1-1
	C0,9.4,0.4,9,1,9z M1,18h6c0.6,0,1,0.4,1,1c0,0.6-0.4,1-1,1H1c-0.6,0-1-0.4-1-1C0,18.4,0.4,18,1,18z M11.3,9.3
	C11.3,9.3,11.3,9.3,11.3,9.3C11.5,9.1,11.7,9,12,9c0.1,0,0.3,0,0.4,0.1c0.1,0,0.1,0,0.1,0.1c0,0,0,0,0.1,0c0.1,0,0.1,0.1,0.2,0.1
	l2.9,2.9c0.4,0.4,0.4,1.1,0,1.5c-0.4,0.4-1.1,0.4-1.5,0L13,12.5V19c0,0.6-0.4,1-1,1c-0.6,0-1-0.4-1-1v-6.5l-1.2,1.2
	c-0.4,0.4-1.1,0.4-1.5,0c-0.4-0.4-0.4-1.1,0-1.5L11.3,9.3z M17,18h6c0.6,0,1,0.4,1,1c0,0.6-0.4,1-1,1h-6c-0.6,0-1-0.4-1-1
	C16,18.4,16.4,18,17,18z"/>
</svg>
