<svg xmlns="http://www.w3.org/2000/svg" width="24" height="24" viewBox="0 0 24 24">
    <g fill="none" fill-rule="nonzero">
        <path d="M0 0h24v24H0z"/>
        <rect width="20" height="2" x="2" y="3" fill="#FFF" rx="1"/>
        <path fill="#FFF" d="M3 11h10a1 1 0 0 1 0 2H3a1 1 0 0 1 0-2zM20.993 11l-2.7-2.7-1.414 1.414L18.164 11H16a1 1 0 0 0 0 2h2.179l-1.3 1.3 1.414 1.414L21.007 13A1 1 0 0 0 21 11h-.007z"/>
        <rect width="20" height="2" x="2" y="19" fill="#FFF" rx="1"/>
    </g>
</svg>
