<svg xmlns="http://www.w3.org/2000/svg" width="14" height="14" viewBox="0 0 14 14">
    <g fill="none" fill-rule="evenodd">
        <path d="M-1-1h16v16H-1z"/>
        <path fill="#FFF" fill-rule="nonzero" d="M7.667 3.667H6.333v2.666H3.667v1.334h2.666v2.666h1.334V7.667h2.666V6.333H7.667V3.667zM7 .333A6.67 6.67 0 0 0 .333 7 6.67 6.67 0 0 0 7 13.667 6.67 6.67 0 0 0 13.667 7 6.67 6.67 0 0 0 7 .333zm0 12A5.34 5.34 0 0 1 1.667 7 5.34 5.34 0 0 1 7 1.667 5.34 5.34 0 0 1 12.333 7 5.34 5.34 0 0 1 7 12.333z"/>
    </g>
</svg>
