<?xml version="1.0" encoding="UTF-8"?>
<svg width="355px" height="330px" viewBox="0 0 355 330" version="1.1" xmlns="http://www.w3.org/2000/svg" xmlns:xlink="http://www.w3.org/1999/xlink">
    <!-- Generator: sketchtool 49.1 (51147) - http://www.bohemiancoding.com/sketch -->
    <title>FBC238EA-2DA2-454B-988E-25388195F8EA</title>
    <desc>Created with sketchtool.</desc>
    <defs></defs>
    <g id="design" stroke="none" stroke-width="1" fill="none" fill-rule="evenodd">
        <g id="404_advanced" transform="translate(-943.000000, -470.000000)" stroke="#3E8359">
            <g id="sad-image" transform="translate(943.000000, 470.000000)">
                <path d="M68.6908845,350.817001 C83.2098207,293.339414 32.6619971,490.921511 134.778192,228.654816 C143.728019,205.668829 118.23898,196.995286 106.707861,188.881388 C76.2519086,167.450988 24.6183982,138.295389 42.9624891,91.2108468 C64.4868446,35.9633869 103.570285,9.46636679 159.927682,2.90146813 C193.840301,-1.04890785 217.697909,-2.11174789 234.790669,29.2219258 C239.681664,38.1878772 245.759668,47.1637748 247.072672,57.2922565 C249.591997,76.7262789 247.390117,159.454635 237.711509,186.546031 C232.093021,202.272743 229.506755,189.783056 220.16673,209.353586 C211.827448,226.827218 237.126025,294.71942 237.126025,324.049207" id="Path-2"></path>
                <path d="M124.25264,163.278709 C161.160748,158.474583 208.991158,162.241366 229.96865,197.1973" id="Path-3"></path>
                <path d="M124.765761,90.2569686 C124.765761,83.6280639 127.833263,76.2467169 124.765761,70.3702544 C119.586248,60.4477784 84.1347467,90.8865154 112.700847,96.1052283 C116.128513,96.7314252 119.66964,96.1052283 123.154036,96.1052283" id="Path-4"></path>
                <path d="M207.022948,83.3634582 C208.070528,80.8669257 213.833341,67.9600368 212.21336,64.7200748 C209.094521,58.4823966 199.671827,60.7017705 197.076301,66.5423109 C195.650591,69.7504934 197.076301,73.563731 197.076301,77.0744411" id="Path-5"></path>
                <path d="M123.318498,253.567481 C104.797912,253.567481 86.1266048,251.209471 67.7567418,253.567481 C40.9247142,257.01172 27.0007206,272.395359 5.17575857,286.321683 C4.51952247,286.740421 3.31784683,286.936527 2.84040179,286.321683 C1.7048517,284.859342 1.66943416,282.80878 1.08395035,281.052328" id="Path-6"></path>
                <path d="M226.251815,260.126942 C249.986934,260.517264 274.088922,257.122612 297.457172,261.297909 C306.75083,262.958444 335.393304,294.738886 340.736925,297.558435 C343.712426,299.128451 339.570343,290.931723 338.987052,287.618367" id="Path-7"></path>
                <path d="M0.386632549,274.177827 C14.8396216,274.177827 14.8603389,287.288433 18.3063843,300.215411" id="Path-8"></path>
                <path d="M324.106553,314.169071 C324.106553,298.283927 326.725277,292.45286 337.559524,281.625381 C339.051396,280.13444 339.059479,276.99239 341.072427,276.362605 C345.306135,275.038019 349.94459,276.362605 354.380671,276.362605" id="Path-9"></path>
                <path d="M68.6908845,350.817001 C83.2098207,293.339414 32.6619971,490.921511 134.778192,228.654816 C143.728019,205.668829 118.23898,196.995286 106.707861,188.881388 C76.2519086,167.450988 24.6183982,138.295389 42.9624891,91.2108468 C64.4868446,35.9633869 103.570285,9.46636679 159.927682,2.90146813 C193.840301,-1.04890785 217.697909,-2.11174789 234.790669,29.2219258 C239.681664,38.1878772 245.759668,47.1637748 247.072672,57.2922565 C249.591997,76.7262789 247.390117,159.454635 237.711509,186.546031 C232.093021,202.272743 229.506755,189.783056 220.16673,209.353586 C211.827448,226.827218 237.126025,294.71942 237.126025,324.049207" id="Path-2"></path>
            </g>
        </g>
    </g>
</svg>