<svg width="264" height="38" viewBox="0 0 478 57" fill="none" xmlns="http://www.w3.org/2000/svg">
<path d="M18.2761 56.1386L0 13.3794H10.5519L18.8968 33.3107L27.2417 13.3794H37.7936L19.5175 56.1386H18.2761ZM62.4836 40.828V13.3794H72.5527V39.3108C72.5527 44.8281 75.1734 46.7591 78.6907 46.7591C82.5528 46.7591 84.9666 44.8281 84.9666 39.3108V13.3794H95.1047V40.828C95.1047 50.6212 87.7942 56.1386 78.6907 56.1386C69.2423 56.1386 62.4836 50.3454 62.4836 40.828ZM122.415 54.7592V13.3794H149.795V22.345H132.553V29.7934H148.485V38.6211H132.553V46.0695H150.554V54.7592H122.415ZM175.933 42.6211H185.795C185.795 45.035 187.727 46.966 190.071 46.966C192.623 46.966 194.209 45.5177 194.209 43.3798C194.209 40.2763 190.14 39.3797 186.761 38.2073C179.795 35.7245 175.933 32.4831 175.933 25.3795C175.933 18.0691 182.209 12.0001 190.002 12.0001C199.175 12.0001 203.52 17.8622 204.072 25.5175H194.554C194.554 23.1726 193.106 21.2416 190.278 21.2416C188.071 21.2416 185.933 22.5519 185.933 25.2416C185.933 28.3451 189.727 28.8968 193.244 29.9313C200.623 32.1383 204.072 36.2762 204.072 42.7591C204.072 50.0695 197.865 56.1386 190.071 56.1386C181.037 56.1386 175.933 50.0695 175.933 42.6211ZM236.442 54.7592V22.345H227.2V13.3794H256.028V22.345H246.649V54.7592H236.442ZM281.408 54.7592V13.3794H291.546V54.7592H281.408ZM317.502 34.0693C317.502 21.7243 326.812 12.0001 339.916 12.0001C347.778 12.0001 353.226 14.9656 357.64 19.5864L350.675 26.2071C347.778 23.3795 344.054 21.5864 339.916 21.5864C332.536 21.5864 327.778 27.1037 327.778 34.0693C327.778 41.0349 332.536 46.5522 339.916 46.5522C344.054 46.5522 347.778 44.7591 350.675 41.9315L357.433 48.5523C353.295 52.8971 347.571 56.1386 339.916 56.1386C326.812 56.1386 317.502 46.4143 317.502 34.0693Z" fill="white"/>
<path d="M388.671 23.5893L388.364 24.844H391.71L391.403 23.5893C391.18 22.7157 390.957 21.7677 390.734 20.7454C390.511 19.7231 390.288 18.7565 390.065 17.8457H389.953C389.749 18.7751 389.535 19.751 389.312 20.7733C389.107 21.777 388.894 22.7157 388.671 23.5893ZM381.7 32.3999L387.221 14.2769H393.02L398.541 32.3999H393.466L392.574 28.5523H387.5L386.607 32.3999H381.7Z" fill="white"/>
<path d="M403.987 32.3999V14.2769H409.34C410.715 14.2769 411.97 14.4441 413.104 14.7787C414.256 15.1133 415.241 15.6431 416.059 16.368C416.877 17.0929 417.509 18.0223 417.955 19.1561C418.42 20.29 418.652 21.6562 418.652 23.2548C418.652 24.8533 418.429 26.2288 417.983 27.3812C417.537 28.5337 416.905 29.4817 416.087 30.2252C415.288 30.9687 414.331 31.517 413.215 31.8702C412.119 32.2234 410.92 32.3999 409.619 32.3999H403.987ZM408.782 28.5523H409.061C409.712 28.5523 410.325 28.4779 410.901 28.3292C411.477 28.1619 411.97 27.8831 412.379 27.4928C412.806 27.1024 413.141 26.5634 413.383 25.8756C413.624 25.1879 413.745 24.3143 413.745 23.2548C413.745 22.1953 413.624 21.3309 413.383 20.6618C413.141 19.9926 412.806 19.4721 412.379 19.1004C411.97 18.7286 411.477 18.4777 410.901 18.3476C410.325 18.1989 409.712 18.1245 409.061 18.1245H408.782V28.5523Z" fill="white"/>
<path d="M424.664 32.3999V14.2769H429.794L432.526 21.6934C432.694 22.1953 432.852 22.7157 433 23.2548C433.149 23.7938 433.307 24.3328 433.474 24.8719H433.586C433.753 24.3328 433.911 23.7938 434.06 23.2548C434.208 22.7157 434.366 22.1953 434.534 21.6934L437.155 14.2769H442.285V32.3999H437.935V27.0467C437.935 26.582 437.954 26.0708 437.991 25.5132C438.047 24.9555 438.103 24.3886 438.158 23.8124C438.214 23.2176 438.279 22.6414 438.354 22.0837C438.428 21.5261 438.493 21.0242 438.549 20.5781H438.437L436.932 24.9277L434.701 30.9222H432.136L429.905 24.9277L428.456 20.5781H428.344C428.4 21.0242 428.465 21.5261 428.539 22.0837C428.614 22.6414 428.679 23.2176 428.734 23.8124C428.79 24.3886 428.837 24.9555 428.874 25.5132C428.93 26.0708 428.957 26.582 428.957 27.0467V32.3999H424.664Z" fill="white"/>
<path d="M450.028 32.3999V14.2769H454.823V32.3999H450.028Z" fill="white"/>
<path d="M462.567 32.3999V14.2769H467.474L471.489 22.3625L473.218 26.4333H473.329C473.274 25.95 473.209 25.4202 473.134 24.844C473.06 24.2678 472.995 23.6823 472.939 23.0875C472.883 22.4741 472.828 21.87 472.772 21.2752C472.735 20.6618 472.716 20.0762 472.716 19.5186V14.2769H477.289V32.3999H472.381L468.366 24.2864L466.638 20.2435H466.526C466.638 21.2845 466.768 22.4183 466.917 23.6451C467.065 24.8719 467.14 26.0429 467.14 27.1582V32.3999H462.567Z" fill="white"/>
<defs>
<linearGradient id="paint0_linear_70_1169" x1="2.26273e-06" y1="34.9889" x2="357.415" y2="34.9889" gradientUnits="userSpaceOnUse">
<stop stop-color="#083CC6"/>
<stop offset="1" stop-color="#6B7AFE"/>
</linearGradient>
</defs>
</svg>
