<?xml version="1.0" encoding="utf-8"?>
<!-- Generator: Adobe Illustrator 21.0.2, SVG Export Plug-In . SVG Version: 6.00 Build 0)  -->
<svg version="1.1" id="Layer_1" xmlns="http://www.w3.org/2000/svg"  x="0px" y="0px"
	 viewBox="0 0 24 20" style="enable-background:new 0 0 24 20;" xml:space="preserve">
<style type="text/css">
	.st0{fill-rule:evenodd;clip-rule:evenodd;fill:#FFFFFF;}
</style>
<path class="st0" d="M23,11h-6c-0.6,0-1-0.4-1-1c0-0.6,0.4-1,1-1h6c0.6,0,1,0.4,1,1C24,10.6,23.6,11,23,11z M23,2H1C0.4,2,0,1.6,0,1
	c0-0.6,0.4-1,1-1h22c0.6,0,1,0.4,1,1C24,1.6,23.6,2,23,2z M1,9h6c0.6,0,1,0.4,1,1c0,0.6-0.4,1-1,1H1c-0.6,0-1-0.4-1-1
	C0,9.4,0.4,9,1,9z M1,18h4c0.6,0,1,0.4,1,1s-0.4,1-1,1H1c-0.6,0-1-0.4-1-1S0.4,18,1,18z M9.8,15.3l1.2,1.2V10c0-0.6,0.4-1,1-1
	c0.6,0,1,0.4,1,1v6.5l1.2-1.2c0.4-0.4,1.1-0.4,1.5,0c0.4,0.4,0.4,1.1,0,1.5l-2.9,2.9C12.6,19.9,12.3,20,12,20c0,0-0.1,0-0.1,0
	c0,0,0,0,0,0c-0.2,0-0.5-0.1-0.7-0.3l-2.9-2.9c-0.4-0.4-0.4-1.1,0-1.5C8.7,14.9,9.4,14.9,9.8,15.3z M19,18h4c0.6,0,1,0.4,1,1
	s-0.4,1-1,1h-4c-0.6,0-1-0.4-1-1S18.4,18,19,18z"/>
</svg>
