<svg width="160" height="31" viewBox="0 0 160 31" fill="none" xmlns="http://www.w3.org/2000/svg">
<g clip-path="url(#clip0_2181_2002)">
<path d="M147.525 20.8378V14.6716H137.158L131.073 20.8378H147.525Z" fill="#FF8B00"/>
<path d="M159.207 5.54565H146.211L140.078 11.7118H159.207V5.54565Z" fill="#55B2C6"/>
<path d="M125.038 27.004L128.153 23.8469H138.667V30.0131H125.038V27.004Z" fill="#FF0000"/>
<path d="M127.325 17.8288H134.042L140.175 11.6626H127.325V17.8288Z" fill="#B4BBBF"/>
<path d="M119.976 27.0039H125.038L131.073 20.8378H119.976V27.0039Z" fill="#B4BBBF"/>
<path d="M146.211 5.54573L143.096 8.70279H123.236V2.53662H146.211V5.54573Z" fill="#B4BBBF"/>
<path d="M15.7142 25.9187H6.17398L4.51903 30.0623H0.333008L9.14314 9.14673H12.7937L21.6039 30.0623H17.3692L15.7142 25.9187ZM14.4 22.6136L10.9441 14.0797L7.48821 22.6136H14.4Z" fill="white"/>
<path d="M79.7217 16.8422C80.9386 15.017 84.0051 14.8197 85.2707 14.8197V18.3714C83.7131 18.3714 82.1555 18.4207 81.2307 19.1114C80.3058 19.802 79.8191 20.7392 79.8191 21.8738V30.0624H76.0225V14.8197H79.6731L79.7217 16.8422Z" fill="white"/>
<path d="M91.1599 14.8197H87.3633V30.0624H91.1599V14.8197Z" fill="white"/>
<path d="M91.1599 8.01221H87.3633V12.5505H91.1599V8.01221Z" fill="white"/>
<path d="M109.997 8.01221V30.0624H106.346L106.249 27.7439C105.713 28.5332 105.032 29.1745 104.204 29.6678C103.377 30.1117 102.355 30.3584 101.186 30.3584C100.164 30.3584 99.1908 30.1611 98.3633 29.8157C97.4872 29.4211 96.7084 28.9278 96.0756 28.2372C95.4428 27.5466 94.9074 26.708 94.5667 25.7708C94.1773 24.8335 94.0312 23.7483 94.0312 22.5644C94.0312 21.3805 94.2259 20.2952 94.5667 19.3086C94.9561 18.322 95.4428 17.4834 96.0756 16.7928C96.7084 16.1022 97.4872 15.5596 98.3633 15.165C99.2395 14.7703 100.164 14.573 101.186 14.573C102.355 14.573 103.328 14.7703 104.156 15.2143C104.983 15.6582 105.665 16.2502 106.2 17.0888V8.06152H109.997V8.01221ZM102.014 27.0533C103.279 27.0533 104.253 26.6094 105.032 25.7708C105.811 24.9322 106.2 23.7976 106.2 22.4163C106.2 21.0351 105.811 19.9499 105.032 19.062C104.253 18.2234 103.279 17.7794 102.014 17.7794C100.797 17.7794 99.7749 18.2234 99.0447 19.062C98.266 19.9006 97.8766 21.0351 97.8766 22.4163C97.8766 23.7976 98.266 24.8828 99.0447 25.7214C99.8235 26.6093 100.797 27.0533 102.014 27.0533Z" fill="white"/>
<path d="M43.5561 18.2728H34.1618V21.5779H39.5161C39.37 23.2551 38.7373 24.5376 37.6664 25.5735C36.5956 26.5601 35.2327 27.0534 33.4804 27.0534C32.5069 27.0534 31.5821 26.8561 30.8033 26.5108C29.9758 26.1655 29.2943 25.6722 28.7103 24.9816C28.1262 24.3403 27.6881 23.551 27.3474 22.6138C27.0066 21.6765 26.8606 20.6899 26.8606 19.5553C26.8606 18.4208 27.0066 17.4342 27.3474 16.4969C27.6394 15.5597 28.1262 14.8197 28.7103 14.1291C29.2943 13.4878 29.9758 12.9945 30.8033 12.5999C31.6307 12.2546 32.5069 12.0573 33.5291 12.0573C35.5734 12.0573 37.131 12.5506 38.2018 13.5371L40.7329 10.972C38.8346 9.49217 36.4009 8.70288 33.5291 8.70288C31.9228 8.70288 30.4626 8.94955 29.1483 9.49217C27.8341 10.0348 26.7146 10.7254 25.7898 11.6626C24.8649 12.5999 24.1348 13.7345 23.6481 15.0664C23.1613 16.3983 22.918 17.8781 22.918 19.4567C22.918 21.0352 23.1613 22.5151 23.6968 23.847C24.2322 25.1789 24.9136 26.3135 25.8385 27.2507C26.7633 28.188 27.8828 28.9279 29.197 29.4212C30.5112 29.9638 31.9715 30.2105 33.5291 30.2105C35.0867 30.2105 36.4982 29.9638 37.7638 29.4212C39.0293 28.8786 40.1002 28.188 40.9763 27.2507C41.8525 26.3135 42.5339 25.1789 43.0207 23.847C43.5074 22.5151 43.7508 21.0352 43.7508 19.4567V18.8154C43.6048 18.7167 43.5561 18.4701 43.5561 18.2728Z" fill="white"/>
<path d="M73.2484 18.2728H63.8542V21.5779H69.2084C69.0624 23.2551 68.4297 24.5376 67.3588 25.5735C66.288 26.5601 64.9251 27.0534 63.1728 27.0534C62.1993 27.0534 61.2744 26.8561 60.4956 26.5108C59.6682 26.1655 58.9867 25.6722 58.4026 24.9816C57.8185 24.3403 57.3805 23.551 57.0397 22.6138C56.699 21.6765 56.553 20.6899 56.553 19.5553C56.553 18.4208 56.699 17.4342 57.0397 16.4969C57.3318 15.5597 57.8185 14.8197 58.4026 14.1291C58.9867 13.4878 59.6682 12.9945 60.4956 12.5999C61.3231 12.2546 62.1993 12.0573 63.2215 12.0573C65.2658 12.0573 66.8234 12.5506 67.8942 13.5371L70.4253 10.972C68.527 9.49217 66.0933 8.70288 63.2215 8.70288C61.6152 8.70288 60.1549 8.94955 58.8407 9.49217C57.5265 10.0348 56.407 10.7254 55.4821 11.6626C54.5573 12.5999 53.8272 13.7345 53.3405 15.0664C52.8537 16.3983 52.6104 17.8781 52.6104 19.4567C52.6104 21.0352 52.8537 22.5151 53.3891 23.847C53.9246 25.1789 54.606 26.3135 55.5308 27.2507C56.4557 28.188 57.5752 28.9279 58.8894 29.4212C60.2036 29.9638 61.6639 30.2105 63.2215 30.2105C64.779 30.2105 66.1906 29.9638 67.4562 29.4212C68.7217 28.8786 69.7925 28.188 70.6687 27.2507C71.5448 26.3135 72.2263 25.1789 72.713 23.847C73.1998 22.5151 73.4432 21.0352 73.4432 19.4567V18.8154C73.2971 18.7167 73.2484 18.4701 73.2484 18.2728Z" fill="white"/>
</g>
<defs>
<clipPath id="clip0_2181_2002">
<rect width="159.538" height="30.4274" fill="white"/>
</clipPath>
</defs>
</svg>
