<svg width="182" height="30" viewBox="0 0 182 30" fill="none" xmlns="http://www.w3.org/2000/svg">
<g clip-path="url(#clip0_2181_1978)">
<path d="M25.1228 13.4459H18.8466C18.4669 13.4459 18.1592 13.7541 18.1592 14.1343V18.4055C18.1592 18.7857 18.4669 19.0938 18.8466 19.0938H25.1228C25.5025 19.0938 25.8102 18.7857 25.8102 18.4055V14.1343C25.8102 13.7541 25.5025 13.4459 25.1228 13.4459Z" fill="#02004E"/>
<path d="M25.1225 4.03271H-0.281353C-0.660992 4.03271 -0.96875 4.3409 -0.96875 4.72106V9.93361C-0.96875 10.3138 -0.660992 10.622 -0.281353 10.622H25.1225C25.5021 10.622 25.8099 10.3138 25.8099 9.93361V4.72106C25.8099 4.3409 25.5021 4.03271 25.1225 4.03271Z" fill="#5C7EF1"/>
<path d="M5.0385 21.918H-0.281353C-0.660992 21.918 -0.96875 22.2262 -0.96875 22.6063V26.8775C-0.96875 27.2577 -0.660992 27.5659 -0.281353 27.5659H5.0385C5.41814 27.5659 5.7259 27.2577 5.7259 26.8775V22.6063C5.7259 22.2262 5.41814 21.918 5.0385 21.918Z" fill="#8C9DFF"/>
<path d="M25.1228 21.918H10.2392C9.85952 21.918 9.55176 22.2262 9.55176 22.6063V26.8775C9.55176 27.2577 9.85952 27.5659 10.2392 27.5659H25.1228C25.5025 27.5659 25.8102 27.2577 25.8102 26.8775V22.6063C25.8102 22.2262 25.5025 21.918 25.1228 21.918Z" fill="#02004E"/>
<path d="M13.6459 13.4459H-0.281353C-0.660992 13.4459 -0.96875 13.7541 -0.96875 14.1343V18.4055C-0.96875 18.7857 -0.660992 19.0938 -0.281353 19.0938H13.6459C14.0256 19.0938 14.3333 18.7857 14.3333 18.4055V14.1343C14.3333 13.7541 14.0256 13.4459 13.6459 13.4459Z" fill="#FFA70B"/>
<path d="M34.6699 6.59326H46.8748V9.97185H38.266V14.2621H46.7113V17.6407H38.266V25.3631H34.6699V6.59326Z" fill="white"/>
<path d="M50.9971 22.1455H55.7373V9.81096H51.1605V6.59326H59.17V22.1455H63.5834V25.3631H50.9971V22.1455Z" fill="white"/>
<path d="M76.5039 23.4326C76.1407 24.2728 75.6322 24.8716 74.9783 25.2291C74.3244 25.5688 73.5617 25.7386 72.6898 25.7386C71.8726 25.7386 71.1007 25.5866 70.3742 25.2828C69.6659 24.9789 69.0393 24.532 68.4945 23.9421C67.9496 23.3521 67.5137 22.6371 67.1868 21.7969C66.8781 20.9567 66.7236 20.0004 66.7236 18.9278V18.4988C66.7236 17.4441 66.8781 16.4966 67.1868 15.6564C67.4956 14.8163 67.9133 14.1012 68.44 13.5113C68.9666 12.9214 69.5751 12.4745 70.2653 12.1706C70.9735 11.8489 71.7273 11.688 72.5264 11.688C73.489 11.688 74.2609 11.8489 74.8421 12.1706C75.4414 12.4924 75.9136 12.9929 76.2587 13.6722H76.7491V12.0634H80.1817V21.3411C80.1817 21.8774 80.4269 22.1455 80.9172 22.1455H81.4349V25.3631H79.092C78.4745 25.3631 77.9659 25.1844 77.5664 24.8269C77.185 24.4694 76.9943 24.0046 76.9943 23.4326H76.5039ZM73.4527 22.5209C74.4516 22.5209 75.2507 22.1992 75.8501 21.5556C76.4494 20.8941 76.7491 20.0004 76.7491 18.8742V18.5524C76.7491 17.4262 76.4494 16.5414 75.8501 15.8978C75.2507 15.2364 74.4516 14.9057 73.4527 14.9057C72.4538 14.9057 71.6546 15.2364 71.0553 15.8978C70.4559 16.5414 70.1563 17.4262 70.1563 18.5524V18.8742C70.1563 20.0004 70.4559 20.8941 71.0553 21.5556C71.6546 22.1992 72.4538 22.5209 73.4527 22.5209Z" fill="white"/>
<path d="M84.0596 12.0633H88.0643V6.59326H91.497V12.0633H96.3733V15.281H91.497V21.3411C91.497 21.8773 91.7424 22.1455 92.2324 22.1455H95.8834V25.3631H90.1621C89.5446 25.3631 89.036 25.1665 88.6364 24.7733C88.255 24.38 88.0643 23.8794 88.0643 23.2716V15.281H84.0596V12.0633Z" fill="white"/>
<path d="M101.039 22.1455H105.779V9.81096H101.203V6.59326H109.213V22.1455H113.626V25.3631H101.039V22.1455Z" fill="white"/>
<path d="M131.043 18.8742C131.043 19.9825 130.851 20.9657 130.47 21.8237C130.088 22.6639 129.571 23.3789 128.917 23.9688C128.264 24.5409 127.51 24.9789 126.656 25.2828C125.821 25.5866 124.94 25.7386 124.013 25.7386C123.088 25.7386 122.197 25.5866 121.344 25.2828C120.509 24.9789 119.764 24.5409 119.11 23.9688C118.456 23.3789 117.939 22.6639 117.557 21.8237C117.176 20.9657 116.985 19.9825 116.985 18.8742V18.5524C116.985 17.4619 117.176 16.4966 117.557 15.6564C117.939 14.7984 118.456 14.0744 119.11 13.4845C119.764 12.8946 120.509 12.4477 121.344 12.1438C122.197 11.8399 123.088 11.688 124.013 11.688C124.94 11.688 125.821 11.8399 126.656 12.1438C127.51 12.4477 128.264 12.8946 128.917 13.4845C129.571 14.0744 130.088 14.7984 130.47 15.6564C130.851 16.4966 131.043 17.4619 131.043 18.5524V18.8742ZM124.013 22.5209C124.504 22.5209 124.968 22.4404 125.403 22.2796C125.839 22.1187 126.22 21.8863 126.548 21.5824C126.874 21.2785 127.129 20.9121 127.31 20.4831C127.51 20.0361 127.609 19.5356 127.609 18.9814V18.4452C127.609 17.8909 127.51 17.3994 127.31 16.9704C127.129 16.5235 126.874 16.1481 126.548 15.8442C126.22 15.5403 125.839 15.3079 125.403 15.1471C124.968 14.9862 124.504 14.9057 124.013 14.9057C123.524 14.9057 123.06 14.9862 122.625 15.1471C122.188 15.3079 121.807 15.5403 121.48 15.8442C121.153 16.1481 120.89 16.5235 120.69 16.9704C120.509 17.3994 120.418 17.8909 120.418 18.4452V18.9814C120.418 19.5356 120.509 20.0361 120.69 20.4831C120.89 20.9121 121.153 21.2785 121.48 21.5824C121.807 21.8863 122.188 22.1187 122.625 22.2796C123.06 22.4404 123.524 22.5209 124.013 22.5209Z" fill="white"/>
<path d="M144.128 23.4326H143.638C143.493 23.7365 143.311 24.0314 143.093 24.3174C142.893 24.5855 142.62 24.8269 142.276 25.0414C141.948 25.2559 141.549 25.4257 141.077 25.5509C140.623 25.676 140.069 25.7386 139.415 25.7386C138.58 25.7386 137.798 25.5956 137.072 25.3096C136.363 25.0056 135.737 24.5677 135.192 23.9957C134.666 23.4058 134.247 22.6907 133.939 21.8506C133.648 21.0104 133.503 20.0451 133.503 18.9546V18.4719C133.503 17.3994 133.657 16.4431 133.966 15.6029C134.293 14.7627 134.729 14.0566 135.274 13.4845C135.837 12.8946 136.482 12.4477 137.208 12.1438C137.953 11.8399 138.734 11.688 139.551 11.688C140.64 11.688 141.504 11.8936 142.14 12.3047C142.775 12.698 143.274 13.2611 143.638 13.994H144.128V12.0634H147.561V28.6346C147.561 29.2423 147.361 29.7428 146.961 30.1361C146.58 30.5294 146.08 30.726 145.463 30.726H136.363V27.5083H143.393C143.882 27.5083 144.128 27.2402 144.128 26.7039V23.4326ZM140.532 22.5209C141.604 22.5209 142.466 22.1902 143.12 21.5288C143.792 20.8495 144.128 19.9647 144.128 18.8742V18.5524C144.128 17.4619 143.792 16.586 143.12 15.9247C142.466 15.2454 141.604 14.9057 140.532 14.9057C139.46 14.9057 138.589 15.2364 137.917 15.8978C137.262 16.5414 136.936 17.4262 136.936 18.5524V18.8742C136.936 20.0004 137.262 20.8941 137.917 21.5556C138.589 22.1992 139.46 22.5209 140.532 22.5209Z" fill="white"/>
<path d="M151.41 22.1453H155.987V15.2809H151.736V12.0632H159.419V22.1453H163.342V25.363H151.41V22.1453ZM160.264 8.12156C160.264 8.47909 160.191 8.81873 160.046 9.1405C159.918 9.44439 159.737 9.71253 159.501 9.94492C159.265 10.1594 158.983 10.3382 158.656 10.4812C158.347 10.6063 158.021 10.6689 157.675 10.6689C157.312 10.6689 156.977 10.6063 156.668 10.4812C156.359 10.3382 156.086 10.1594 155.851 9.94492C155.615 9.71253 155.423 9.44439 155.278 9.1405C155.151 8.81873 155.088 8.47909 155.088 8.12156C155.088 7.76404 155.151 7.43334 155.278 7.12945C155.423 6.80767 155.615 6.53953 155.851 6.32502C156.086 6.09263 156.359 5.91387 156.668 5.78873C156.977 5.64573 157.312 5.57422 157.675 5.57422C158.021 5.57422 158.347 5.64573 158.656 5.78873C158.983 5.91387 159.265 6.09263 159.501 6.32502C159.737 6.53953 159.918 6.80767 160.046 7.12945C160.191 7.43334 160.264 7.76404 160.264 8.12156Z" fill="white"/>
<path d="M181.031 20.4831C180.722 22.0561 179.987 23.3253 178.824 24.2906C177.681 25.2559 176.146 25.7386 174.221 25.7386C173.222 25.7386 172.286 25.5866 171.415 25.2828C170.561 24.9789 169.816 24.5409 169.181 23.9688C168.545 23.3969 168.046 22.6907 167.682 21.8506C167.319 21.0104 167.138 20.054 167.138 18.9814V18.6596C167.138 17.5871 167.319 16.6218 167.682 15.7638C168.046 14.9057 168.545 14.1728 169.181 13.565C169.835 12.9572 170.588 12.4924 171.442 12.1706C172.314 11.8489 173.24 11.688 174.221 11.688C176.11 11.688 177.635 12.1706 178.798 13.136C179.978 14.1012 180.722 15.3705 181.031 16.9435L177.653 17.8016C177.544 17.015 177.199 16.3357 176.618 15.7638C176.036 15.1917 175.219 14.9057 174.166 14.9057C173.676 14.9057 173.213 14.9951 172.777 15.1738C172.341 15.3526 171.96 15.6118 171.633 15.9514C171.305 16.2732 171.042 16.6754 170.842 17.1581C170.661 17.6228 170.57 18.1501 170.57 18.7401V18.901C170.57 19.4909 170.661 20.0182 170.842 20.4831C171.042 20.9299 171.305 21.3053 171.633 21.6092C171.96 21.9131 172.341 22.1455 172.777 22.3064C173.213 22.4494 173.676 22.5209 174.166 22.5209C175.219 22.5209 176.019 22.2617 176.563 21.7433C177.127 21.2249 177.49 20.5277 177.653 19.6518L181.031 20.4831Z" fill="white"/>
</g>
<defs>
<clipPath id="clip0_2181_1978">
<rect width="182" height="30" fill="white"/>
</clipPath>
</defs>
</svg>
