<svg width="37" height="37" viewBox="0 0 37 37" fill="none" xmlns="http://www.w3.org/2000/svg">
<path d="M0.5 0.5H36.5V36.5H0.5V0.5Z" fill="black"/>
<path d="M4.418 29.75H17.918V32H4.418V29.75Z" fill="white"/>
<path d="M3.854 9.8L4.856 8.852C4.95135 9.00247 5.08099 9.12822 5.23429 9.21896C5.3876 9.30969 5.56021 9.36282 5.738 9.374C6.122 9.374 6.374 9.11 6.374 8.588V5H7.922V8.6C7.94516 8.88182 7.91083 9.16541 7.8211 9.43357C7.73137 9.70173 7.58811 9.94887 7.4 10.16C7.19336 10.3522 6.9507 10.5015 6.68603 10.5993C6.42136 10.6971 6.13994 10.7416 5.858 10.73C5.4728 10.7553 5.08742 10.6834 4.73726 10.5209C4.3871 10.3584 4.08338 10.1105 3.854 9.8Z" fill="white"/>
<path d="M8.6 5H13.118V6.314H10.118V7.178H12.812V8.378H10.16V9.272H13.16V10.598H8.6V5Z" fill="white"/>
<path d="M15.338 6.374H13.658V5H18.584V6.362H16.898V10.622H15.338V6.374Z" fill="white"/>
<path d="M4.478 12.848H7.13C7.68565 12.8063 8.23536 12.9852 8.66 13.346C8.77893 13.4667 8.87215 13.6104 8.93402 13.7681C8.9959 13.9259 9.02514 14.0946 9.02 14.264C9.02675 14.5375 8.94681 14.806 8.79161 15.0313C8.63641 15.2565 8.41392 15.4269 8.156 15.518C8.47521 15.5765 8.76304 15.7471 8.96764 15.999C9.17225 16.2509 9.28018 16.5676 9.272 16.892C9.272 17.858 8.486 18.446 7.142 18.446H4.478V12.848ZM7.478 14.582C7.478 14.27 7.226 14.102 6.77 14.102H5.996V15.086H6.74C7.214 15.086 7.49 14.93 7.49 14.6L7.478 14.582ZM6.938 16.178H5.996V17.216H6.968C7.448 17.216 7.712 17.03 7.712 16.7C7.712 16.4 7.472 16.178 6.95 16.178H6.938Z" fill="white"/>
<path d="M9.8 12.848H12.26C12.9153 12.8052 13.5614 13.0206 14.06 13.448C14.2365 13.6174 14.3757 13.8218 14.4686 14.048C14.5616 14.2743 14.6064 14.5175 14.6 14.762C14.6108 15.1355 14.5051 15.503 14.2976 15.8138C14.0901 16.1245 13.7911 16.3629 13.442 16.496L14.786 18.458H12.986L11.858 16.754H11.336V18.458H9.8V12.848ZM12.2 15.548C12.722 15.548 13.034 15.29 13.034 14.882C13.034 14.432 12.71 14.21 12.194 14.21H11.33V15.566L12.2 15.548Z" fill="white"/>
<path d="M16.754 12.8H18.254L20.654 18.464H18.98L18.578 17.45H16.4L15.998 18.464H14.372L16.754 12.8ZM18.116 16.238L17.516 14.648L16.88 16.238H18.116Z" fill="white"/>
<path d="M20.876 12.83H22.436V18.452H20.876V12.83Z" fill="white"/>
<path d="M23.036 12.83H24.488L26.51 15.83V12.83H28.052V18.452H26.696L24.578 15.368V18.452H23.036V12.83Z" fill="white"/>
<path d="M28.316 17.6L29.186 16.562C29.6916 16.9859 30.3264 17.225 30.986 17.24C31.412 17.24 31.634 17.096 31.634 16.85C31.634 16.61 31.448 16.49 30.68 16.304C29.48 16.028 28.562 15.704 28.562 14.546C28.562 13.502 29.384 12.746 30.734 12.746C31.5705 12.7138 32.3912 12.9796 33.05 13.496L32.294 14.6C31.8388 14.2595 31.2901 14.0668 30.722 14.048C30.344 14.048 30.158 14.198 30.158 14.408C30.158 14.66 30.35 14.774 31.136 14.954C32.42 15.23 33.2 15.65 33.2 16.7C33.2 17.846 32.294 18.5 30.926 18.5C29.976 18.5239 29.0493 18.2043 28.316 17.6Z" fill="white"/>
</svg>
