<svg width="116" height="32" viewBox="0 0 116 32" fill="none" xmlns="http://www.w3.org/2000/svg">
<path d="M19.7 2.5L16 8.85L12.3 2.5H0L16 30L32 2.5H19.7Z" fill="#42B883"/>
<path d="M19.7 2.5L16 8.85L12.3 2.5H6.4L16 19L25.6 2.5H19.7Z" fill="#35495E"/>
<path d="M44.6705 7.54545L48.8892 20.8068H49.0511L53.2784 7.54545H57.3693L51.3523 25H46.5966L40.571 7.54545H44.6705ZM67.9969 19.4261V11.9091H71.6276V25H68.1418V22.6222H68.0054C67.7099 23.3892 67.2185 24.0057 66.531 24.4716C65.8491 24.9375 65.0168 25.1705 64.0338 25.1705C63.1588 25.1705 62.3889 24.9716 61.7241 24.5739C61.0594 24.1761 60.5395 23.6108 60.1645 22.8778C59.7952 22.1449 59.6077 21.267 59.602 20.2443V11.9091H63.2327V19.5966C63.2384 20.3693 63.4457 20.9801 63.8548 21.429C64.2639 21.8778 64.8122 22.1023 65.4997 22.1023C65.9372 22.1023 66.3463 22.0028 66.727 21.804C67.1077 21.5994 67.4145 21.2983 67.6474 20.9006C67.8861 20.5028 68.0026 20.0114 67.9969 19.4261ZM80.6976 25.2557C79.351 25.2557 78.1919 24.983 77.2203 24.4375C76.2544 23.8864 75.5101 23.108 74.9874 22.1023C74.4646 21.0909 74.2033 19.8949 74.2033 18.5142C74.2033 17.1676 74.4646 15.9858 74.9874 14.9688C75.5101 13.9517 76.2459 13.1591 77.1947 12.5909C78.1493 12.0227 79.2686 11.7386 80.5527 11.7386C81.4163 11.7386 82.2203 11.8778 82.9646 12.1562C83.7146 12.429 84.368 12.8409 84.9249 13.392C85.4874 13.9432 85.9249 14.6364 86.2374 15.4716C86.5499 16.3011 86.7061 17.2727 86.7061 18.3864V19.3835H75.6521V17.1335H83.2885C83.2885 16.6108 83.1749 16.1477 82.9476 15.7443C82.7203 15.3409 82.405 15.0256 82.0016 14.7983C81.6038 14.5653 81.1408 14.4489 80.6124 14.4489C80.0612 14.4489 79.5726 14.5767 79.1465 14.8324C78.726 15.0824 78.3965 15.4205 78.1578 15.8466C77.9192 16.267 77.797 16.7358 77.7913 17.2528V19.392C77.7913 20.0398 77.9107 20.5994 78.1493 21.071C78.3936 21.5426 78.7374 21.9062 79.1805 22.1619C79.6237 22.4176 80.1493 22.5455 80.7572 22.5455C81.1607 22.5455 81.53 22.4886 81.8652 22.375C82.2004 22.2614 82.4874 22.0909 82.726 21.8636C82.9646 21.6364 83.1465 21.358 83.2715 21.0284L86.6294 21.25C86.459 22.0568 86.1095 22.7614 85.5811 23.3636C85.0584 23.9602 84.3822 24.4261 83.5527 24.7614C82.7288 25.0909 81.7771 25.2557 80.6976 25.2557ZM91.3976 25.2216C90.8351 25.2216 90.3521 25.0227 89.9487 24.625C89.551 24.2216 89.3521 23.7386 89.3521 23.1761C89.3521 22.6193 89.551 22.142 89.9487 21.7443C90.3521 21.3466 90.8351 21.1477 91.3976 21.1477C91.943 21.1477 92.4203 21.3466 92.8294 21.7443C93.2385 22.142 93.443 22.6193 93.443 23.1761C93.443 23.5511 93.3464 23.8949 93.1533 24.2074C92.9658 24.5142 92.7186 24.7614 92.4118 24.9489C92.105 25.1307 91.7669 25.2216 91.3976 25.2216ZM96.6239 11.9091H100.255V25.6477C100.255 26.6591 100.056 27.4773 99.658 28.1023C99.2602 28.7273 98.6892 29.1847 97.9449 29.4744C97.2062 29.7642 96.3227 29.9091 95.2943 29.9091C95.1693 29.9091 95.05 29.9063 94.9364 29.9006C94.817 29.9006 94.692 29.8977 94.5614 29.892V27.054C94.658 27.0597 94.7432 27.0625 94.817 27.0625C94.8852 27.0682 94.9591 27.071 95.0386 27.071C95.6239 27.071 96.033 26.946 96.2659 26.696C96.5045 26.4517 96.6239 26.0824 96.6239 25.5881V11.9091ZM98.4307 10.2216C97.8966 10.2216 97.4364 10.0426 97.05 9.68466C96.6636 9.32102 96.4705 8.88636 96.4705 8.38068C96.4705 7.88068 96.6636 7.4517 97.05 7.09375C97.4364 6.73011 97.8966 6.54829 98.4307 6.54829C98.9761 6.54829 99.4392 6.73011 99.8199 7.09375C100.206 7.4517 100.399 7.88068 100.399 8.38068C100.399 8.88636 100.206 9.32102 99.8199 9.68466C99.4392 10.0426 98.9761 10.2216 98.4307 10.2216ZM114.255 15.642L110.931 15.8466C110.874 15.5625 110.752 15.3068 110.565 15.0795C110.377 14.8466 110.13 14.6619 109.823 14.5256C109.522 14.3835 109.161 14.3125 108.741 14.3125C108.178 14.3125 107.704 14.4318 107.317 14.6705C106.931 14.9034 106.738 15.2159 106.738 15.608C106.738 15.9205 106.863 16.1847 107.113 16.4006C107.363 16.6165 107.792 16.7898 108.4 16.9205L110.769 17.3977C112.042 17.6591 112.991 18.0795 113.616 18.6591C114.241 19.2386 114.553 20 114.553 20.9432C114.553 21.8011 114.3 22.554 113.795 23.2017C113.295 23.8494 112.607 24.3551 111.732 24.7188C110.863 25.0767 109.86 25.2557 108.724 25.2557C106.991 25.2557 105.61 24.8949 104.582 24.1733C103.559 23.446 102.96 22.4574 102.783 21.2074L106.354 21.0199C106.462 21.5483 106.724 21.9517 107.138 22.2301C107.553 22.5028 108.085 22.6392 108.732 22.6392C109.369 22.6392 109.88 22.517 110.266 22.2727C110.658 22.0227 110.857 21.7017 110.863 21.3097C110.857 20.9801 110.718 20.7102 110.445 20.5C110.173 20.2841 109.752 20.1193 109.184 20.0057L106.917 19.554C105.638 19.2983 104.687 18.8551 104.062 18.2244C103.442 17.5937 103.133 16.7898 103.133 15.8125C103.133 14.9716 103.36 14.2472 103.815 13.6392C104.275 13.0312 104.92 12.5625 105.749 12.233C106.585 11.9034 107.562 11.7386 108.681 11.7386C110.335 11.7386 111.636 12.0881 112.585 12.7869C113.539 13.4858 114.096 14.4375 114.255 15.642Z" fill="#E1E1E1"/>
</svg>
