<svg width="126" height="33" viewBox="0 0 126 33" fill="none" xmlns="http://www.w3.org/2000/svg">
<g clip-path="url(#clip0_2181_1994)">
<path d="M0 4.11182H4.78278L9.63106 18.243L10.4828 21.2594H10.7448L11.6621 18.243L16.7069 4.11182H21.4897L12.9396 27.5872H8.28787L0 4.11182ZM33.1845 25.4888H32.9223C32.4201 26.2975 31.7431 26.9369 30.8913 27.4069C30.0396 27.8768 29.0677 28.1118 27.9758 28.1118C25.9448 28.1118 24.4324 27.4889 23.4387 26.243C22.445 24.997 21.9482 23.3359 21.9482 21.2594V11.5217H26.2396V20.7348C26.2396 21.8933 26.4961 22.7512 27.0095 23.3085C27.5227 23.8659 28.2707 24.1446 29.2534 24.1446C29.8431 24.1446 30.3617 24.019 30.8094 23.7676C31.2571 23.5162 31.6393 23.1774 31.9559 22.7512C32.2726 22.325 32.5128 21.8222 32.6766 21.243C32.8405 20.6637 32.9223 20.0463 32.9223 19.3906V11.5217H37.2137V27.5872H33.1845V25.4888ZM55.4275 23.7184C54.685 25.0299 53.6858 26.09 52.4301 26.8987C51.1742 27.7074 49.6402 28.1118 47.8275 28.1118C46.6045 28.1118 45.4743 27.8988 44.4369 27.4724C43.3996 27.0462 42.4987 26.4507 41.7343 25.6856C40.97 24.9206 40.375 24.019 39.9491 22.9807C39.5231 21.9425 39.3103 20.8003 39.3103 19.5544C39.3103 18.396 39.5178 17.2975 39.9326 16.2593C40.3476 15.2212 40.9263 14.314 41.6688 13.538C42.4114 12.7622 43.2904 12.1446 44.3059 11.6855C45.3214 11.2266 46.4406 10.9971 47.6637 10.9971C48.9522 10.9971 50.0987 11.2101 51.1034 11.6363C52.1079 12.0627 52.9488 12.6527 53.6258 13.4069C54.3028 14.1611 54.816 15.0517 55.1653 16.079C55.5148 17.1064 55.6895 18.2212 55.6895 19.4233V19.8168C55.6688 19.9359 55.6578 20.0565 55.6568 20.1774C55.6341 20.2963 55.6231 20.4171 55.624 20.5381H43.5361C43.6234 21.1938 43.8036 21.7567 44.0766 22.2266C44.3496 22.6965 44.6881 23.09 45.0921 23.407C45.4961 23.7239 45.9384 23.9533 46.4188 24.0954C46.8974 24.2373 47.3939 24.3091 47.893 24.3086C48.8757 24.3086 49.6892 24.0846 50.3335 23.6363C50.9777 23.1883 51.4856 22.6254 51.8568 21.9478L55.4275 23.7184ZM51.5292 17.4889C51.5074 17.2048 51.4146 16.8878 51.2507 16.538C51.0869 16.1884 50.8467 15.8604 50.5301 15.5545C50.2134 15.2484 49.8204 14.997 49.3507 14.8003C48.8812 14.6036 48.3188 14.5052 47.6637 14.5052C46.7465 14.5052 45.9384 14.7676 45.2396 15.2921C44.5407 15.8167 44.0494 16.549 43.7654 17.4889H51.5292Z" fill="#18CA84"/>
<path fill-rule="evenodd" clip-rule="evenodd" d="M72.3307 4.11182V20.1446C72.3307 21.4561 72.1287 22.6091 71.7247 23.6036C71.3207 24.5982 70.7747 25.4288 70.0867 26.0954C69.3988 26.7621 68.5908 27.2649 67.6626 27.6037C66.7344 27.9425 65.7352 28.1118 64.6652 28.1118C62.8088 28.1118 61.1873 27.609 59.8006 26.6036C58.4137 25.5982 57.4474 24.2102 56.9014 22.4398L60.9635 20.7676C61.2475 21.8167 61.706 22.6036 62.3393 23.1282C62.9727 23.6528 63.748 23.9151 64.6652 23.9151C65.6916 23.9151 66.4888 23.5873 67.0566 22.9315C67.6245 22.2758 67.9083 21.3576 67.9083 20.1774V8.53808H60.9757V4.11182H72.3307ZM86.912 27.2113C86.7228 27.3051 86.5303 27.3922 86.3349 27.4724C85.2976 27.8988 84.1565 28.1118 82.9117 28.1118C81.667 28.1118 80.5258 27.8988 79.4884 27.4724C78.4511 27.0462 77.5557 26.456 76.8022 25.702C76.0488 24.9478 75.4591 24.0462 75.0333 22.9971C74.6075 21.9478 74.3945 20.8003 74.3945 19.5544C74.3945 18.3086 74.6075 17.1611 75.0333 16.1118C75.4591 15.0627 76.0488 14.1611 76.8022 13.4069C77.5557 12.6527 78.4511 12.0627 79.4884 11.6363C80.5258 11.2101 81.667 10.9971 82.9117 10.9971C84.1565 10.9971 85.2976 11.2101 86.3349 11.6363C87.3723 12.0627 88.2678 12.6527 89.0211 13.4069C89.7747 14.1611 90.3643 15.0627 90.7902 16.1118C91.216 17.1611 91.4289 18.3086 91.4289 19.5544C91.4289 20.8003 91.216 21.9478 90.7902 22.9971C90.3643 24.0462 89.7747 24.9478 89.0211 25.702C88.9563 25.7671 88.8901 25.8308 88.8231 25.8933L90.3301 28.1995C90.5757 28.2248 90.8126 28.3046 91.0235 28.4331C91.2344 28.5616 91.414 28.7356 91.5492 28.9424L94.7673 33.8665C94.8076 33.9282 94.8353 33.9971 94.849 34.0695C94.8626 34.1419 94.8619 34.2162 94.8468 34.2883C94.8317 34.3604 94.8026 34.4288 94.7612 34.4896C94.7197 34.5504 94.6666 34.6024 94.605 34.6427L92.5735 35.9728C92.512 36.0131 92.443 36.0409 92.3707 36.0545C92.2984 36.0682 92.2242 36.0674 92.1522 36.0524C92.0801 36.0373 92.0118 36.0081 91.951 35.9666C91.8903 35.9251 91.8383 35.872 91.798 35.8104L88.5799 30.8862C88.4448 30.6794 88.3575 30.445 88.3244 30.2001C88.2913 29.9552 88.3131 29.706 88.3884 29.4706L86.912 27.2113ZM82.9117 24.1446C83.4577 24.1446 83.9873 24.0409 84.5005 23.8332C85.01 23.6279 85.4726 23.3211 85.8601 22.9315C86.2531 22.538 86.5643 22.0571 86.7936 21.4889C87.0229 20.9206 87.1376 20.2757 87.1376 19.5544C87.1376 18.8331 87.0229 18.1883 86.7936 17.62C86.5643 17.0517 86.2531 16.5709 85.8601 16.1774C85.4726 15.7878 85.01 15.481 84.5005 15.2757C83.9961 15.0698 83.4565 14.964 82.9117 14.9643C82.344 14.9643 81.8088 15.0681 81.3066 15.2757C80.8043 15.4834 80.3566 15.784 79.9634 16.1774C79.5704 16.5709 79.2591 17.0517 79.0299 17.62C78.8006 18.1883 78.6859 18.8331 78.6859 19.5544C78.6859 20.2757 78.8006 20.9206 79.0299 21.4889C79.2591 22.0571 79.5704 22.538 79.9634 22.9315C80.3566 23.3249 80.8043 23.6255 81.3066 23.8332C81.8088 24.0409 82.344 24.1446 82.9117 24.1446Z" fill="#2C3E50"/>
<path d="M93.5264 4.11182H97.8178V11.1611L97.5558 13.4561H97.8178C98.211 12.7785 98.8223 12.1992 99.6523 11.7184C100.482 11.2375 101.509 10.9971 102.732 10.9971C103.758 10.9971 104.735 11.2101 105.663 11.6363C106.592 12.0627 107.411 12.6527 108.12 13.4069C108.83 14.1611 109.392 15.0627 109.807 16.1118C110.222 17.1611 110.43 18.3086 110.43 19.5544C110.43 20.8003 110.222 21.9478 109.807 22.9971C109.392 24.0462 108.83 24.9478 108.12 25.702C107.411 26.456 106.592 27.0462 105.663 27.4724C104.735 27.8988 103.758 28.1118 102.732 28.1118C101.509 28.1118 100.482 27.8714 99.6523 27.3905C98.8223 26.9096 98.211 26.3304 97.8178 25.6528H97.5558V27.5872H93.5264V4.11182ZM101.847 24.1446C102.415 24.1446 102.955 24.0354 103.469 23.8167C103.977 23.6016 104.439 23.2898 104.828 22.8987C105.221 22.5053 105.538 22.0244 105.778 21.4561C106.018 20.8877 106.138 20.2538 106.138 19.5544C106.138 18.8549 106.018 18.2212 105.778 17.6528C105.538 17.0845 105.221 16.6036 104.828 16.2102C104.439 15.8191 103.977 15.5073 103.469 15.2921C102.955 15.0736 102.415 14.9643 101.847 14.9643C101.279 14.9643 100.739 15.0681 100.226 15.2757C99.716 15.481 99.2535 15.7878 98.866 16.1774C98.473 16.5709 98.1563 17.0517 97.9161 17.62C97.6758 18.1883 97.5558 18.8331 97.5558 19.5544C97.5558 20.2757 97.6758 20.9206 97.9161 21.4889C98.1563 22.0571 98.473 22.538 98.866 22.9315C99.2535 23.3211 99.716 23.6279 100.226 23.8332C100.739 24.0409 101.279 24.1446 101.847 24.1446ZM118.881 28.1118C117.833 28.1118 116.9 27.9807 116.081 27.7185C115.262 27.4561 114.552 27.1118 113.951 26.6855C113.351 26.2593 112.843 25.7676 112.428 25.2102C112.013 24.6527 111.696 24.0899 111.478 23.5217L115.311 21.8823C115.682 22.7128 116.179 23.3304 116.801 23.7348C117.424 24.1391 118.117 24.3413 118.881 24.3413C119.668 24.3413 120.29 24.1993 120.749 23.9151C121.207 23.631 121.437 23.2922 121.437 22.8987C121.437 22.4616 121.246 22.1063 120.863 21.8331C120.481 21.56 119.821 21.3139 118.881 21.0954L116.621 20.6036C116.119 20.4944 115.6 20.3195 115.065 20.079C114.538 19.8437 114.047 19.5346 113.607 19.161C113.171 18.7894 112.81 18.3413 112.526 17.8167C112.242 17.2922 112.1 16.6802 112.1 15.9807C112.1 15.1938 112.27 14.4944 112.608 13.8823C112.947 13.2703 113.411 12.7512 114.001 12.3249C114.59 11.8987 115.284 11.5708 116.081 11.3414C116.878 11.1119 117.735 10.9971 118.652 10.9971C120.181 10.9971 121.546 11.2975 122.747 11.8987C123.948 12.4998 124.833 13.4561 125.4 14.7676L121.699 16.2758C121.393 15.6419 120.945 15.1828 120.356 14.8987C119.766 14.6145 119.176 14.4725 118.587 14.4725C117.975 14.4725 117.44 14.5981 116.982 14.8495C116.523 15.1009 116.294 15.4234 116.294 15.8167C116.294 16.1884 116.485 16.4835 116.867 16.702C117.249 16.9205 117.768 17.1172 118.423 17.2922L120.88 17.8824C122.518 18.2757 123.735 18.9041 124.532 19.7676C125.329 20.631 125.728 21.6527 125.728 22.8331C125.728 23.5326 125.564 24.1993 125.237 24.8331C124.909 25.467 124.445 26.0298 123.844 26.5217C123.244 27.0135 122.523 27.4015 121.682 27.6856C120.842 27.9697 119.908 28.1118 118.881 28.1118Z" fill="#2C3E50"/>
</g>
<defs>
<clipPath id="clip0_2181_1994">
<rect width="125.821" height="32.0721" fill="white"/>
</clipPath>
</defs>
</svg>
