<svg width="154" height="32" viewBox="0 0 154 32" fill="none" xmlns="http://www.w3.org/2000/svg">
    <path d="M51.2764 26.568H54.4897L62.8203 5.65634H58.5063L52.9128 20.3514L47.4086 5.65634H43.0352L51.2764 26.568ZM70.6748 26.8654C74.5129 26.8654 77.1607 24.3076 77.1607 20.5297V12.2006H73.2633V20.4403C73.2633 22.2548 72.3112 23.2662 70.6748 23.2662C69.0385 23.2662 68.0863 22.2251 68.0863 20.4403V12.2006H64.1592V20.5297C64.1592 24.2481 66.8666 26.8654 70.6748 26.8654ZM86.5326 26.8654C88.8533 26.8654 90.9062 26.0329 92.3343 24.3968L90.0435 22.106C89.1807 23.0876 87.9311 23.5933 86.503 23.5933C84.5096 23.5933 83.1113 22.5522 82.6352 20.7674L93.1377 20.7377C93.2864 20.0833 93.346 19.5481 93.346 19.0424C93.346 14.9076 90.3707 11.8735 86.2649 11.8735C82.0104 11.8735 78.7079 15.1157 78.7079 19.3695C78.7079 23.7125 82.0401 26.8654 86.5326 26.8654V26.8654ZM86.2649 15.1155C88.0798 15.1155 89.2104 16.0677 89.5972 17.8525H82.6352C83.1113 16.157 84.4203 15.1452 86.2649 15.1155ZM99.7427 26.8654C104.057 26.8654 106.853 23.9801 106.853 19.5479V5.65634H102.777V19.7861C102.777 21.9278 101.587 23.1175 99.7129 23.1175C98.4633 23.1175 97.4518 22.5824 96.7377 21.5412L94.0005 24.1586C95.25 25.8542 97.2138 26.8654 99.7427 26.8654ZM116.582 26.8654C120.926 26.8654 124.258 23.5936 124.258 19.3399C124.258 15.1158 120.926 11.8735 116.553 11.8735C112.209 11.8735 108.877 15.1456 108.877 19.3399C108.877 23.5936 112.238 26.8654 116.582 26.8654ZM116.553 23.2366C114.381 23.2366 112.863 21.6302 112.863 19.3695C112.863 17.1385 114.381 15.532 116.553 15.532C118.725 15.532 120.272 17.1087 120.272 19.3695C120.272 21.6302 118.754 23.2366 116.553 23.2366ZM126.163 26.568H130.03V25.2892C131.042 26.2709 132.47 26.8654 134.136 26.8654C138.123 26.8654 141.098 23.6529 141.098 19.3991C141.098 15.1453 138.123 11.9032 134.136 11.9032C132.5 11.9032 131.072 12.4682 130.06 13.4201V5.0614H126.163V26.568ZM133.482 23.2662C131.31 23.2662 129.822 21.66 129.822 19.3695C129.822 17.1087 131.31 15.5024 133.452 15.5024C135.594 15.5024 137.111 17.1087 137.111 19.3695C137.111 21.66 135.594 23.2662 133.482 23.2662ZM148.001 26.8957C151.482 26.8957 153.653 25.1405 153.653 22.3145C153.653 16.9899 146.454 18.2988 146.454 16.1868C146.454 15.5324 147.078 15.1753 148.239 15.1753C149.488 15.1753 150.619 15.6214 151.482 16.6923L153.832 14.3422C152.582 12.7061 150.589 11.8433 148.209 11.8433C144.787 11.8433 142.675 13.6285 142.675 16.3652C142.675 21.6304 149.905 20.1429 149.905 22.4929C149.905 23.2068 149.22 23.5637 147.971 23.5637C146.364 23.5637 145.055 22.9986 144.073 21.898L141.753 24.2481C143.181 25.9139 145.531 26.8957 148.001 26.8957V26.8957Z"
          fill="white"/>
    <path d="M22.465 25.0982L22.0726 25.7749L22.0703 25.7773L18.4785 31.9962L0 0H7.97105L22.4632 25.0959L22.465 25.0982ZM26.4537 18.1908L15.9484 0.000197507H36.9573L26.4537 18.1908Z"
          fill="#22C55D"/>
    <path d="M26.4528 18.1909L22.4688 25.089H22.4662L11.9656 6.90076L11.9585 6.89128L15.9372 0.000244141H15.9467L26.4506 18.1899L26.4528 18.1909Z"
          fill="#235667"/>
</svg>
