<?xml version="1.0" standalone="no"?>
<!DOCTYPE svg PUBLIC "-//W3C//DTD SVG 1.1//EN"
  "http://www.w3.org/Graphics/SVG/1.1/DTD/svg11.dtd" >
<svg xmlns="http://www.w3.org/2000/svg">
  <metadata>
    This is a custom SVG webfont generated by Font Squirrel.
    Copyright : Stephen Hutchings 2012
  </metadata>
  <defs>
    <font id="TypiconsRegular" horiz-adv-x="2048">
      <font-face units-per-em="2048" ascent="2048" descent="0"/>
      <missing-glyph horiz-adv-x="1024"/>
      <glyph unicode=" " horiz-adv-x="1024"/>
      <glyph unicode="&#x09;" horiz-adv-x="1024"/>
      <glyph unicode="&#xa0;" horiz-adv-x="1024"/>
      <glyph unicode="&#x22;"
             d="M427 427v341h341v-341h-341zM427 853v342h341v-342h-341zM427 1280v341h341v-341h-341zM853 427v341h342v-341h-342zM853 853v342h342v-342h-342zM853 1280v341h342v-341h-342zM1280 427v341h341v-341h-341zM1280 853v342h341v-342h-341zM1280 1280v341h341v-341h-341z "/>
      <glyph unicode="#"
             d="M427 427v341h341v-341h-341zM427 853v342h341v-342h-341zM427 1280v341h341v-341h-341zM853 427v341h768v-341h-768zM853 853v342h768v-342h-768zM853 1280v341h768v-341h-768z"/>
      <glyph unicode="$"
             d="M512 427v256l341 341q-43 68 -42 171q0 171 123.5 298.5t303 127.5t303 -128t123.5 -298q0 -162 -119.5 -294.5t-281.5 -132.5h-68h-171v-171h-171v-170h-341zM1067 1194.5q0 -68.5 51 -119.5t119.5 -51t119.5 51t51 119.5t-51 119.5t-119.5 51t-119.5 -51t-51 -119.5z "/>
      <glyph unicode="%"
             d="M341 1024q0 290 205 478q188 205 478 205t478 -205q205 -188 205 -478t-205 -478q-188 -205 -478 -205t-478 205q-205 188 -205 478zM512 1024q0 -222 154 -358q137 -154 358.5 -154t357.5 154q154 137 154 358.5t-154 357.5q-137 154 -358.5 154t-357.5 -154 q-154 -136 -154 -358zM939 896v555h170v-461l256 -137l-111 -128z"/>
      <glyph unicode="'"
             d="M401 1476q0 68 43 137q51 51 119 51t128 -60q43 -43 86 -128q60 -128 102 -179q51 -85 145 -162q77 68 145 171q85 119 111 170q43 77 85 137q77 60 120 60q51 0 85 -26q85 60 136.5 60t76.5 -34l-59 8q-68 -26 -103 -85q34 -43 34 -111t-51 -137q-60 -60 -128 -59 q-34 0 -68 17t-60 34l-17 17q-43 0 -213 -324q9 0 128 -137t171 -222q60 -102 59 -171q0 -85 -51 -162l-401 538l-393 -538q-51 77 -51 162.5t60 170.5q26 51 162 222l128 137l-8 8l-22 43q-13 26 -30 42q-17 43 -85 154q-43 68 -60 68q-9 0 -51 -34q-51 -34 -94 -34 q-77 0 -128 68q-51 51 -51 128zM469 1485q0 -128 120 -128q43 0 77 30t34 72q0 51 -43 94t-85 43q-103 0 -103 -111zM1357 1468q0 -43 34 -77q26 -26 77 -26t85 34q34 51 34 86q0 111 -102 111q-60 0 -94 -34q-34 -43 -34 -94z"/>
      <glyph unicode="("
             d="M427 512q0 34 34 68q17 26 85 94l60 51q-60 43 -85 103q-26 43 -26 111q0 102 77 179q51 51 102 111q102 119 137 153q68 68 145 111q77 51 153 52q68 0 111 -26q51 -17 103 -77l42 43l60 68q51 68 111 68q34 0 59.5 -25.5t25.5 -59.5t-34 -68q-17 -26 -85 -94l-60 -51 q60 -43 85 -103q26 -43 26 -111q0 -102 -77 -179l-94 -111q-26 -26 -72.5 -77t-63.5 -76q-102 -85 -145 -111q-85 -60 -162 -60q-68 0 -111 26q-60 26 -103 85q-17 -26 -51 -60q-119 -119 -162 -119q-34 0 -59.5 25.5t-25.5 59.5zM666 939q0 -17 8 -17v-17l17 -18 q9 -17 26 -25l8 -17l26 25l34 35q34 34 68 34q85 0 86 -86q0 -34 -34 -68l-35 -34l-25 -26l8 -8l17 -17q17 -17 26 -17l9 -9h34q43 0 59 17l359 359q26 26 25 59q0 17 -8 17v17l-17 18q-9 17 -26 25l-8 17q0 -9 -26 -34q-17 -9 -34 -26q-34 -34 -68 -34q-85 0 -86 86 q0 34 34 68q17 17 26 34q26 26 34 26l-8 8q-17 26 -34 26q-26 26 -52 25q-34 0 -59 -25l-359 -359q-25 -25 -25 -59z"/>
      <glyph unicode=")"
             d="M427 427v1194q0 85 85 86h853q85 0 86 -86v-1194q0 -43 -34 -43t-103 51q-68 51 -119 120l-128 128q-77 51 -128.5 51t-127.5 -51l-52 -52q-51 -43 -76 -76q-17 -17 -38.5 -43t-43 -43t-38.5 -34q-68 -51 -102 -51q-17 0 -26 17q-8 9 -8 26z"/>
      <glyph unicode="*"
             d="M427 597q0 102 85 137q94 43 171 34v751l853 179v-947q-9 -60 -77 -111q-68 -43 -136 -43q-77 0 -145 52q-68 43 -69 119q0 102 86 137q68 51 170 34v546l-512 -103v-802q-17 -77 -76 -111q-68 -43 -137 -42q-77 0 -145 51q-68 42 -68 119z"/>
      <glyph unicode="+"
             d="M512 512v341q0 43 17 43q17 -9 38.5 -26t29.5 -17q17 -17 69 -17q60 0 94 60t34 128t-34.5 128t-93.5 60q-51 0 -86 -26q-43 -34 -51 -34q-17 17 -17 43v170q0 77 102 94h94h86q34 -9 59 -8q43 0 43 25q-9 9 -26 30t-17 30q-17 17 -17 68q0 60 60 94t128 34t128 -34 t60 -94q0 -51 -26 -85l-34 -43q9 -26 77 -25h136q77 17 120 -9q51 -26 51 -77v-170q0 -43 -17 -43q-17 9 -38.5 26t-29.5 17q-17 17 -69 17q-60 0 -94 -60t-34 -128t34.5 -128t93.5 -60q43 0 94 26q34 34 43 34q17 -17 17 -43v-341q0 -85 -85 -85h-256q-43 0 -43 25 q9 9 26 30t17 30q17 17 17 68q0 60 -60 94t-128 34t-128 -34t-60 -94q0 -51 26 -85l34 -43q-9 -26 -43 -25h-256q-85 0 -85 85z"/>
      <glyph unicode=","
             d="M341 427v426q17 51 43 145l77 282q51 154 51 171h256v-86h-171l-85 -512h1024l-85 512h-171v86h256q0 -17 51 -171l77 -282l43 -145v-426h-1366zM683 1280h170v341h342v-341h170l-341 -341z"/>
      <glyph unicode="-"
             d="M512 512v1024q0 102 77 179t179 77h512q102 0 179 -77t77 -179v-1024q0 -102 -77 -179t-179 -77h-512q-102 0 -179 77t-77 179zM683 512h682v1024h-682v-1024zM853 1664q0 -43 43 -43h256q43 0 43 43t-43 43h-256q-43 0 -43 -43zM964.5 324.5q59.5 -59.5 119 0t0 119 t-119 0t0 -119z"/>
      <glyph unicode="."
             d="M341 1024q0 290 205 478q188 205 478 205t478 -205q205 -188 205 -478t-205 -478q-188 -205 -478 -205t-478 205q-205 188 -205 478zM512 1024q0 -222 154 -358q137 -154 358 -154v1024q-222 0 -358 -154q-154 -136 -154 -358z"/>
      <glyph unicode="/"
             d="M290 811q0 60 60 85l51 17q94 34 137 34q85 0 85 -85q0 -51 -60 -77l-51 -17q-102 -43 -137 -43q-85 1 -85 86zM290 1237q0 85 85 86q9 0 26 -4.5t34 -4.5q9 0 34 -13l43 -21l51 -17q60 -34 60 -77q0 -85 -85 -85q-34 0 -60 8q-26 17 -77 26l-51 17q-60 25 -60 85z M538 469q0 43 42 103q9 9 21.5 25.5t21.5 25.5l34 34q26 34 68 34q85 0 86 -85q0 -43 -52 -94q-9 -17 -42 -51l-26 -43q-34 -34 -68 -34q-85 0 -85 85zM538 1579q0 85 85 85q34 0 68 -34l26 -43q34 -34 42 -51q51 -51 52 -94q0 -85 -86 -85q-43 0 -68 34l-34 34 q-9 9 -21.5 26t-21.5 25q-42 86 -42 103zM683 1024q0 137 102 239q85 102 239 102q137 0 239 -102t102 -239q0 -154 -102 -239q-102 -102 -239 -102q-154 0 -239 102q-102 85 -102 239zM853 1024q0 -68 51.5 -119.5t119.5 -51.5t119.5 51.5t51.5 119.5t-51.5 119.5 t-119.5 51.5t-119.5 -51.5t-51.5 -119.5zM939 341v171q0 85 85 85t85 -85v-171q0 -85 -85 -85t-85 85zM939 1536v171q0 85 85 85t85 -85v-171q0 -85 -85 -85t-85 85zM1237 606q0 85 86 85q43 0 68 -34l34 -34q9 -9 21.5 -26t21.5 -25q43 -85 42 -103q0 -85 -85 -85 q-34 0 -68 34l-34 43q-9 9 -17.5 25.5t-16.5 25.5q-52 51 -52 94zM1237 1442q0 43 52 94q9 9 17 26t17 25l34 43q34 34 68 34q85 0 85 -85q0 -34 -25 -60q-17 -34 -51 -77l-43 -51q-26 -34 -68 -34q-86 0 -86 85zM1425 862q0 85 85 85q34 0 52 -8q17 0 51 -9q17 -17 34 -17 l51 -17q60 -26 60 -85q0 -85 -85 -86q-9 0 -26 4.5t-34 4.5q-9 0 -34 13l-43 21l-51 17q-60 26 -60 77zM1425 1186q0 51 60 77l51 17q102 43 137 43q85 0 85 -86q0 -60 -60 -85l-51 -17q-77 -34 -137 -34q-85 0 -85 85z"/>
      <glyph unicode="0"
             d="M213 768v597q0 102 77 179t179 77h939q111 0 179 -76q77 -77 77 -188q9 0 26 4l17 4q51 0 94 -51q34 -60 34 -119v-256q0 -85 -52 -137q-34 -34 -76 -34h-17q-17 9 -26 9q0 -111 -77 -188q-68 -77 -179 -77h-939q-102 0 -179 77t-77 179zM384 768q0 -85 85 -85h939 q85 0 85 85v597q0 85 -85 86h-939q-85 0 -85 -86v-597z"/>
      <glyph unicode="1"
             d="M171 768v597q0 102 76.5 179t179.5 77h938q85 0 145 -85q68 -68 111 -171h17q17 9 26 9q60 0 94 -51q34 -43 34 -120v-273q0 -85 -51 -136q-26 -34 -68 -35q-34 0 -52 9q0 -102 -76.5 -179t-179.5 -77h-938q-102 0 -179 77t-77 179zM341 768q0 -85 86 -85h938q85 0 86 85 v597q0 85 -86 86h-938q-85 0 -86 -86v-597zM427 768v597h256v-597h-256z"/>
      <glyph unicode="2"
             d="M171 768v597q0 102 76.5 179t179.5 77h938q85 0 145 -85q68 -68 111 -171h17q17 9 26 9q60 0 94 -51q34 -43 34 -120v-273q0 -85 -51 -136q-26 -34 -68 -35q-34 0 -52 9q0 -102 -76.5 -179t-179.5 -77h-938q-102 0 -179 77t-77 179zM341 768q0 -85 86 -85h938q85 0 86 85 v597q0 85 -86 86h-938q-85 0 -86 -86v-597zM427 768v597h256v-597h-256zM768 768v597h256v-597h-256z"/>
      <glyph unicode="3"
             d="M171 768v597q0 102 76.5 179t179.5 77h938q85 0 145 -85q68 -68 111 -171h17q17 9 26 9q60 0 94 -51q34 -43 34 -120v-273q0 -85 -51 -136q-26 -34 -68 -35q-34 0 -52 9q0 -102 -76.5 -179t-179.5 -77h-938q-102 0 -179 77t-77 179zM341 768q0 -85 86 -85h938q85 0 86 85 v597q0 85 -86 86h-938q-85 0 -86 -86v-597zM427 768v597h256v-597h-256zM768 768v597h256v-597h-256zM1109 768v597h256v-597h-256z"/>
      <glyph unicode="4"
             d="M171 768v597q0 102 76.5 179t179.5 77h938q111 0 188 -76q68 -85 68 -188l17 8h26q60 0 94 -51q34 -60 34 -119v-256q0 -85 -51 -137q-34 -34 -77 -34h-17q-17 9 -26 9q0 -102 -68 -188q-77 -77 -188 -77h-938q-102 0 -179 77t-77 179zM341 768q0 -85 86 -85h938 q85 0 86 85v597q0 85 -86 86h-938q-85 0 -86 -86v-597zM427 768v597h938v-597h-938zM597 1024q119 34 222 85q34 -102 103 -230l273 230l-222 -85q-17 68 -103 230q-162 -119 -273 -230z"/>
      <glyph unicode="5"
             d="M341 768v427h427v426h427v-426h426v-427h-426v-427h-427v427h-427z"/>
      <glyph unicode="6"
             d="M427 683l384 384l-384 384l256 256l384 -384l384 384l256 -256l-384 -384l384 -384l-256 -256l-384 384l-384 -384z"/>
      <glyph unicode="7"
             d="M512 683l384 384l-384 384l256 256l640 -640l-640 -640z"/>
      <glyph unicode="8"
             d="M555 1067l640 640l256 -256l-384 -384l384 -384l-256 -256z"/>
      <glyph unicode="9"
             d="M341 358v427l683 683l427 -427l-683 -683h-427zM512 529h256l-256 256v-256zM1109 1553l171 171l427 -427l-171 -171z"/>
      <glyph unicode=":"
             d="M282 1169.5q0 247.5 179 417.5q171 179 418 179t418 -179q179 -171 179 -418q0 -145 -59 -264l238 -239h-8q60 -51 60 -137q0 -77 -60 -136q-51 -51 -128 -51.5t-137 59.5v-8l-239 238q-119 -60 -264 -59q-247 0 -418 179q-179 171 -179 418.5zM538 1169q0 -145 102 -239 q102 -102 238.5 -102t239.5 102q102 94 102 239q0 137 -102.5 239t-239 102t-238.5 -102t-102 -239z"/>
      <glyph unicode=";"
             d="M273 1246q0 137 111 264q111 111 265 111q162 0 264 -111q111 -102 111 -264q0 162 111 264q102 111 264 111q154 0 265 -111t111 -264q0 -128 -77 -265q-77 -102 -94 -119l-102 -103q-9 -9 -47 -42.5t-73 -50.5q-51 -34 -119 -86l-128 -77l-64 -42q-38 -26 -47 -34 q-9 9 -47 34l-64 42l-128 77q-68 51 -119 86q-34 17 -72.5 51t-47.5 42l-102 103q-17 17 -94 119q-77 137 -77 265z"/>
      <glyph unicode="="
             d="M265 1280h580l179 555l179 -555h580l-469 -341l179 -555l-469 341l-469 -341l179 555z"/>
      <glyph unicode="?"
             d="M171 1195l768 597v-341h8q43 0 154 -43q137 -43 188 -77q247 -137 375 -324q128 -179 128 -410v-25v-60q-171 452 -666 452q-111 0 -187 -25v-342z"/>
      <glyph unicode="@"
             d="M256 512v60v25q0 230 128 410q128 188 375 324q17 9 47 21.5t68.5 29.5t72.5 26q128 43 154 43h8v341l768 -597l-768 -598v342q-77 26 -187 25q-495 0 -666 -452z"/>
      <glyph unicode="A"
             d="M427 1203q0 282 204 478q196 196 478 196t478 -196q205 -196 205 -478q0 -230 -171 -444q-85 -111 -153 -170q-43 -51 -188 -179q-154 -137 -171 -154q-85 85 -170 154q-77 68 -188 179q-68 60 -154 170q-170 197 -170 444zM811 1195q0 -128 85 -213.5t213 -85.5 t213.5 85.5t85.5 213.5t-85.5 213t-213.5 85t-213 -85t-85 -213z"/>
      <glyph unicode="B"
             d="M256 623q0 26 17 43l256 256q17 17 43 17q9 0 42 -17q26 -17 52 -52l34 -34l-342 -341q-17 17 -34 26l-34 34q-34 34 -34 68zM444 410l341 341q9 -9 34 -9q43 0 162 111q119 102 231 248q85 94 85 145v17l341 341q51 -51 52 -162q0 -137 -111 -341q-102 -171 -282 -350 q-128 -145 -350 -273q-188 -111 -341 -111q-102 0 -162 43zM1109 1476q0 26 17 43l256 256q17 17 43 17q9 0 43 -17q17 -9 51 -43l34 -42l-341 -342q-17 17 -43 34q-60 51 -60 94z"/>
      <glyph unicode="C"
             d="M213 1041q0 17 26 34l785 632l785 -632q26 -17 26 -34t-43 -17h-85h-86v-85v-427v-85q0 -85 -85 -86h-256q-85 0 -85 86v341v85h-86h-170h-86v-85v-341q0 -85 -85 -86h-256q-85 0 -85 86v85v427v85h-86h-85q-43 0 -43 17z"/>
      <glyph unicode="D"
             d="M256 512v853q0 85 85 86h171q85 0 145 59l51 52q60 60 145 59h342q85 0 145 -59l51 -52q60 -60 145 -59h171q85 0 85 -86v-853q0 -85 -85 -85h-1366q-85 0 -85 85zM725 981.5q0 -119.5 90 -209t209 -89.5t209 89.5t90 209t-90 209t-209 89.5t-209 -89.5t-90 -209z M1451 1109h170v171h-170v-171z"/>
      <glyph unicode="E"
             d="M341 1041v26v25l9 17v9q9 9 17 21.5t8 21.5l427 426q34 34 94 34t94 -34t34 -93.5t-34 -94.5l-213 -204h802q51 0 89.5 -38.5t38.5 -90t-38.5 -89.5t-89.5 -38h-802l213 -205q34 -34 34 -94t-34 -94t-94 -34t-94 34l-427 427q0 9 -8.5 21.5t-16.5 20.5v9z"/>
      <glyph unicode="F"
             d="M341 1066.5q0 51.5 38.5 90t89.5 38.5h802l-213 204q-34 34 -34 94t34 94t94 34t94 -34l427 -426q0 -9 8.5 -22t16.5 -21v-9l9 -17v-25v-26l-9 -17v-9q-9 -9 -17 -21.5t-8 -20.5l-427 -427q-34 -34 -94 -34t-94 34t-34 94t34 94l213 205h-802q-51 0 -89.5 38t-38.5 89.5z "/>
      <glyph unicode="G"
             d="M512 1237.5q0 59.5 34 93.5l427 427q9 0 21.5 8.5t20.5 16.5h9l17 9h26h25l17 -9h9q9 -9 21.5 -17t21.5 -8l426 -427q34 -34 34 -93.5t-34 -94t-93.5 -34.5t-94.5 34l-204 214v-802q0 -51 -38.5 -89.5t-90 -38.5t-89.5 38t-38 90v802l-205 -214q-34 -34 -94 -34t-94 34.5 t-34 94z"/>
      <glyph unicode="H"
             d="M512 896q0 60 34 94t94 34t94 -34l205 -213v802q0 51 38 89.5t89.5 38.5t90 -38.5t38.5 -89.5v-802l204 213q34 34 94 34t94 -34t34 -94t-34 -94l-426 -427q-9 0 -22 -8.5t-21 -16.5h-9l-17 -9h-25h-26l-17 9h-9q-9 9 -21.5 17t-20.5 8l-427 427q-34 34 -34 94z"/>
      <glyph unicode="I"
             d="M401 1024q0 256 179 435q188 188 444 188q239 0 393 -145l204 205v-598h-597l239 239q-119 77 -239 77q-162 0 -281.5 -119.5t-119.5 -281.5t119.5 -281.5t281.5 -119.5q137 0 256 94q111 102 137 239l221 -34q-34 -222 -213 -376q-188 -145 -401 -145q-256 0 -444 179 q-179 188 -179 444z"/>
      <glyph unicode="J"
             d="M444 1024q0 239 170.5 409.5t409.5 170.5v231l341 -342l-341 -341v230q-154 0 -256 -102t-102 -256q0 -128 93 -222l-153 -153q-162 162 -162 375zM683 555l341 341v-230q154 0 256 102t102 256q0 128 -93 222l153 153q162 -162 162 -375q0 -239 -170.5 -409.5 t-409.5 -170.5v-231z"/>
      <glyph unicode="K"
             d="M256 939q0 179 111 256q34 34 119 51q77 26 137 25q34 9 145 9l-85 -85l85 -86h-60h-42h-26l-60 -8q-17 0 -38 -4.5t-30 -4.5q-26 -26 -43 -34q-43 -34 -42 -119q0 -68 51 -119.5t119 -51.5h854q68 0 119 51t51 119.5t-51 119.5t-119 51h-256v-256l-333 342l333 341v-256 h34h111q60 0 111 -9q51 0 102 -17q17 -9 47 -17t47 -17q43 -26 77 -68q68 -85 68 -213q0 -137 -102.5 -239.5t-238.5 -102.5h-854q-137 0 -239 102.5t-102 239.5z"/>
      <glyph unicode="L"
             d="M256 939q0 43 17 128q43 111 128 153q34 9 85 34q51 17 111 17q51 9 111 9h103h8h34l-85 -85l85 -86h-76l-94 9h-9q-9 0 -38.5 -4.5t-46.5 -4.5q-34 -9 -86 -25q-77 -43 -76 -145q0 -68 51 -119.5t119 -51.5h171v256l341 -341l-341 -342v256q-111 0 -145 9q-34 0 -137 17 q-94 26 -119 60q-111 77 -111 256zM939 1195l341 341v-256q102 0 145 -9q60 0 137 -25q68 -9 119 -51q111 -77 111 -256q0 -60 -17 -128q-34 -111 -128 -154q-34 -17 -85.5 -34t-110.5 -17q-26 0 -64.5 -4.5t-46.5 -4.5h-111h-34l85 86l-85 85h76l94 -9h9q9 0 38.5 4.5 t46.5 4.5q34 9 86 26q77 43 76 145q0 68 -51 119t-119 51h-171v-256z"/>
      <glyph unicode="M"
             d="M427 597v256q94 -9 213 -8q51 0 94 42q51 68 68 111q9 26 60 137q51 102 85 145q94 154 333 162v179l299 -298l-299 -299l299 -299l-299 -298v179q-85 0 -154 17q-68 34 -119 85q60 68 119 205q51 -68 86 -68h8h60v179v179h-60h-8q-34 0 -86 -68q-43 -51 -85 -154 q-60 -119 -102 -179q-68 -111 -137 -145q-43 -34 -94 -43q-34 -9 -85 -8l-102 -9h-94zM427 1195v256h94q77 0 102 -9q43 0 77 -8q94 -26 170 -94q-85 -94 -119 -205q-51 68 -111 68q-119 1 -213 -8z"/>
      <glyph unicode="N"
             d="M341 512q0 68 51.5 119.5t119.5 51.5t119.5 -51.5t51.5 -119.5t-51.5 -119.5t-119.5 -51.5t-119.5 51.5t-51.5 119.5zM341 930v256q333 0 598 -247q247 -265 247 -598h-256q0 239 -179 410q-171 179 -410 179zM341 1408v256q282 0 512 -111q239 -102 427 -273 q171 -188 273 -427q111 -230 111 -512h-256q0 273 -145 538q-137 247 -384 384q-265 145 -538 145z"/>
      <glyph unicode="O"
             d="M367 802l230 222l-230 222l136 239l308 -94l76 316h274l76 -316l308 94l136 -239l-230 -222l230 -222l-136 -239l-308 94l-76 -316h-274l-76 316l-308 -94zM845 1024q0 -77 51 -128t128 -51t128 51t51 128t-51 128t-128 51t-128 -51t-51 -128z"/>
      <glyph unicode="P"
             d="M341 606q0 119 77 179l589 478q0 512 384 512q43 0 111 -17l-239 -239l43 -213l213 -43l239 239q17 -68 17 -111q0 -384 -512 -384l-478 -589q-43 -43 -77 -51q-51 -26 -102 -26q-111 0 -188 77t-77 188z"/>
      <glyph unicode="Q"
             d="M427 427v512h341v-512h-341zM853 435v1186h342v-1186h-342zM1280 435v845h341v-845h-341z"/>
      <glyph unicode="R"
             d="M341 990q0 179 111 324q111 154 273 205l128 -580l495 -282q-68 -94 -196 -171q-119 -60 -256 -59q-230 0 -392.5 162t-162.5 401zM819 1758q77 34 188 34q102 0 213 -43l-264 -623zM1041 973l273 631q179 -77 282 -230q111 -162 111 -350q0 -205 -120 -367z"/>
      <glyph unicode="S"
             d="M341 427v1109h171v-623l418 597l367 -460l188 128l102 -137l-324 -222l-324 410l-427 -606v-26h1109v-170h-1280z"/>
      <glyph unicode="T"
             d="M341 1109q145 213 350 359q205 154 418 153q205 0 427 -153q239 -196 341 -359q-102 -162 -341 -358q-222 -154 -427 -154q-213 0 -418 154q-205 145 -350 358zM785 1109q0 -119 94 -230q111 -94 230 -94q128 0 222 94q102 102 103 230q0 137 -103 222q-85 102 -222 103 q-128 0 -230 -103q-94 -94 -94 -222zM939 1109.5q0 68.5 51 119.5t119.5 51t119.5 -51t51 -119.5t-51 -119.5t-119.5 -51t-119.5 51t-51 119.5z"/>
      <glyph unicode="U"
             d="M256 1195q0 256 179 418q162 179 418 179t418 -179q179 -162 180 -418q0 -145 -60 -265l239 -239q51 -60 51 -136.5t-60 -127.5q-51 -60 -127.5 -60t-136.5 51l-239 239q-119 -60 -265 -60q-256 0 -418 180q-179 162 -179 418zM427 1195q0 -188 128 -299 q128 -128 298.5 -128t298.5 128t128 298.5t-128 298.5q-111 128 -299 128q-171 0 -298.5 -127.5t-127.5 -298.5zM597 1109v171h512v-171h-512z"/>
      <glyph unicode="V"
             d="M256 1195q0 256 179 418q162 179 418 179t418 -179q179 -162 180 -418q0 -145 -60 -265l239 -239q51 -60 51 -136.5t-60 -127.5q-51 -60 -127.5 -60t-136.5 51l-239 239q-119 -60 -265 -60q-256 0 -418 180q-179 162 -179 418zM427 1194.5q0 -170.5 128 -298.5 t298.5 -128t298.5 128t128 298.5t-128 298.5t-298.5 128t-298.5 -128t-128 -298.5zM597 1109v171h171v171h171v-171h170v-171h-170v-170h-171v170h-171z"/>
      <glyph unicode="W"
             d="M341 427v1365h768l-170 -256h-342v-853h854l256 256v-512h-1366zM683 853q154 614 597 683v256l512 -512l-512 -512q0 34 9 77v102l8 9v25q0 9 -4 26t-4 34q0 102 -77 102q-145 0 -307 -85q-171 -94 -222 -205z"/>
      <glyph unicode="X"
             d="M350 495q0 68 111 145q137 111 392 162v94h9q-179 162 -179 427q0 196 76 307q94 119 265 119t265 -119q77 -111 76 -307q0 -265 -179 -427h9v-94q94 -17 196 -51q94 -34 196 -111q119 -85 120 -154q0 -102 -290 -153q-196 -34 -392.5 -34t-393.5 34q-281 51 -281 162z "/>
      <glyph unicode="Y"
             d="M51 785q0 77 137 162q111 60 239 77v85q-128 128 -128 316q0 324 256 324q128 0 162 -34q43 -34 60 -153q-162 -111 -163 -410q0 -265 111 -384q-43 0 -119 -51l-60 -34l-17 -17q-26 -17 -43 -35l-42 -42q-43 0 -231 51q-162 51 -162 145zM469 461q0 68 154 162 q145 77 264 85v94q-137 128 -136 341q0 350 273 350t273 -350q0 -213 -136 -341v-94q119 -9 264 -85.5t145 -161.5q0 -68 -119 -103q-128 -34 -248 -51q-77 -9 -179 -8.5t-179 8.5q-119 17 -247.5 51.5t-128.5 102.5zM1271 1562q17 119 60 153q34 34 162 34q256 0 256 -324 q0 -188 -128 -316v-85q128 -17 239 -77q145 -77 145 -162t-170 -145q-188 -51 -231 -51l-42 42q-17 17 -43 35l-17 17q-34 17 -60 34q-77 51 -119 51q111 119 111 384q-1 299 -163 410z"/>
      <glyph unicode="Z"
             d="M512 1109v256q0 85 85.5 85.5t85.5 -85.5v-256q0 -51 12.5 -110.5t98 -145t230.5 -85.5q154 0 239 89.5t93.5 149.5t8.5 102v256q0 85 85.5 85.5t85.5 -85.5v-256q0 -162 -102.5 -320t-324.5 -183v-179h256q85 0 85.5 -85.5t-85.5 -85.5h-682q-85 0 -85.5 85.5t85.5 85.5 h256v179q-222 26 -324.5 183.5t-102.5 319.5zM768 1152v34v9v341q0 111 72.5 183.5t183.5 72.5t183.5 -72.5t72.5 -183.5v-341v-43q0 -111 -72.5 -183.5t-183.5 -72.5t-183.5 72.5t-72.5 183.5z"/>
      <glyph unicode="["
             d="M171 427v1194h1706v-1194h-1706zM341 631l376 376l-376 333v-709zM469 1451l555 -487l555 487h-1110zM546 597h956l-299 299l-179 -154l-179 154zM1331 1007l376 -376v709z"/>
      <glyph unicode="\"
             d="M341 853v512q0 102 77 179t179 77h854q102 0 179 -76.5t77 -179.5v-512q0 -77 -43 -136q-68 -119 -213 -120h-427l-341 -341v341q-342 0 -342 256z"/>
      <glyph unicode="]"
             d="M341 1195v170h103q26 77 68 103l17 68q60 171 239 171h512q179 0 239 -171l17 -68q43 -26 68 -103h103v-170h-86v-683q0 -111 -72.5 -183.5t-183.5 -72.5h-682q-111 0 -183.5 72.5t-72.5 183.5v683h-86zM597 512q0 -85 86 -85h682q85 0 86 85v683h-854v-683zM683 512v597 h170v-597h-170zM683 1365h682v86q0 85 -85 85h-512q-85 0 -85 -85v-86zM939 512v597h170v-597h-170zM1195 512v597h170v-597h-170z"/>
      <glyph unicode="^"
             d="M282 1024q0 34 68 145q17 26 72.5 107t98.5 132l110 145q51 68 137 68h939q85 0 85 -85v-1024q0 -85 -85 -85h-939q-68 0 -137 68q0 9 -110 145q-43 51 -103 132t-68 98q-68 111 -68 154zM794 768l145 -145l256 256l256 -256l145 145l-256 256l256 256l-145 145 l-256 -256l-256 256l-145 -145l256 -256z"/>
      <glyph unicode="_"
             d="M171 1024q0 179 119 299q128 128 299 128q179 0 298 -128l137 -128l137 136q119 119 298 120q171 0 299 -128q119 -119 119 -298.5t-119 -299.5q-128 -128 -299 -128q-179 0 -298 128l-137 128l-137 -136q-119 -119 -298 -120q-171 0 -299 128q-119 120 -119 299z M418 1024q0 -77 51 -128q43 -51 120 -51h8q68 0 120 51l128 128l-128 128q-51 51 -128 51q-68 0 -119.5 -51t-51.5 -128zM1203 1024l128 -128q51 -51 120 -51h8q77 0 120 51q51 51 51 128t-51 128q-43 51 -120 51h-8q-68 0 -120 -51z"/>
      <glyph unicode="a"
             d="M512 341.5q0 85.5 85 85.5h342v102q-213 26 -393 188q-17 17 -17 60q0 34 17 51q26 26 51 25q34 0 60 -25q119 -119 282 -145h170q162 26 282 145q154 154 154 367t-154 367l-51 59l230 222q17 26 51 26t52 -26q26 -17 25.5 -51t-25.5 -51l-120 -128q145 -188 145 -418 q0 -265 -196 -478q-179 -162 -393 -188v-102h342q85 0 85 -85.5t-85 -85.5h-854q-85 0 -85 85.5zM606 1194.5q0 170.5 123.5 294.5t294.5 124t294.5 -124t123.5 -294.5t-123.5 -294t-294.5 -123.5t-294.5 123.5t-123.5 294z"/>
      <glyph unicode="b"
             d="M427 597v683h256v-683h-256zM768 683v512q94 0 179 170q43 102 77 256h171q0 -60 -17 -196q-26 -102 -69 -145l427 -85l-85 -598q-85 -85 -256 -85q-111 0 -239 43q-137 51 -188 128z"/>
      <glyph unicode="c"
             d="M512 853l85 598q85 85 256 85q111 0 239 -43q137 -51 188 -128v-512q-94 0 -179 -170q-43 -102 -77 -256h-171q0 43 17 196q26 102 69 145zM1365 768v683h256v-683h-256z"/>
      <glyph unicode="d"
             d="M256 1109v683h683l793 -794q43 -43 43 -102q0 -51 -43 -94l-486 -486q-43 -43 -94 -43q-60 0 -102 43zM469 1408q0 -68 51.5 -119.5t119.5 -51.5t119.5 51.5t51.5 119.5t-51.5 119.5t-119.5 51.5t-119.5 -51.5t-51.5 -119.5z"/>
      <glyph unicode="e"
             d="M256 512v768q0 68 51 119.5t120 51.5h768q68 0 119 -51.5t51 -119.5v-768q0 -68 -51 -119.5t-119 -51.5h-768q-68 0 -119.5 51.5t-51.5 119.5zM427 512h768v768h-768v-768zM512 1536v85q0 68 51 119.5t120 51.5h853q68 0 119.5 -51t51.5 -120v-853q0 -119 -86 -145 q-77 -26 -170 -26v171h85v853h-853v-85h-171z"/>
      <glyph unicode="f"
             d="M341 503q0 17 17 69l598 990q34 60 85 59q60 0 85 -59l598 -990q17 -26 17 -69q0 -77 -103 -76h-1194q-103 -1 -103 76zM913 1280l85 -427h86l85 427h-256zM956 597h170v171h-170v-171z"/>
      <glyph unicode="g"
             d="M230 1067q0 68 69 153q60 60 153 60q51 0 94 -34q68 -51 94 -77l94 -94q34 -43 60 -68l452 640q68 94 179 94q77 0 145 -68q60 -60 60 -145.5t-154 -315.5q-111 -171 -384 -555l-239 -316l-554 564q-69 68 -69 162z"/>
      <glyph unicode="h"
             d="M469 623q0 94 52 230q94 273 128 359q51 137 85 239h-43h-51h-43q-85 17 -85 85q0 85 85 85h939q85 0 85 -85q0 -68 -59 -77q-26 -9 -52 -8h-25h-34h-52q17 -68 86 -239q102 -273 128 -350q51 -154 51 -239q0 -77 -68 -145q-51 -51 -145 -51h-768q-85 0 -154 51 q-60 77 -60 145zM802 1109h529l-111 342h-307z"/>
      <glyph unicode="i"
             d="M427 512v597q0 85 85 86h512v17v42v60l9 94q0 43 17 94l25 77q17 43 60 68q60 60 188 60t213 -85.5t85 -213.5v-299h-170q0 43 8 86v111q0 68 -8 111q-17 119 -128 119q-43 0 -94 -34q-34 -34 -34 -94v-213h25h26h8h35l51 -26q26 -9 25 -60v-597q0 -85 -85 -85h-768 q-85 0 -85 85z"/>
      <glyph unicode="j"
             d="M512 512v597q0 51 26 60l51 26h25h17h18h34q0 102 8 145q0 34 17 136q26 68 60 120q77 111 256 111t256 -111q34 -51 60 -120q17 -102 17 -136q9 -43 8 -145h26h26h17h25l51 -26q26 -9 26 -60v-597q0 -85 -85 -85h-854q-85 0 -85 85zM853 1195h342v170q0 68 -51.5 119.5 t-119.5 51.5t-119.5 -51t-51.5 -120v-170z"/>
      <glyph unicode="k"
             d="M512 597v256h1024v-256h-1024zM512 1024l512 512l512 -512h-1024z"/>
      <glyph unicode="l"
             d="M256 1024l341 341v-170h256v256h-170l341 341l341 -341h-170v-256h256v170l341 -341l-341 -341v170h-256v-256h170l-341 -341l-341 341h170v256h-256v-170z"/>
      <glyph unicode="m"
             d="M427 427v512l170 -171l171 171l171 -171l-171 -171l171 -170h-512zM427 1109v512h512l-171 -170l171 -171l-171 -171l-171 171zM1109 768l171 171l171 -171l170 171v-512h-486l145 170zM1109 1280l171 171l-171 170h512v-512l-170 171l-171 -171z"/>
      <glyph unicode="n"
             d="M341 1024q0 282 200.5 482.5t482.5 200.5t482.5 -200.5t200.5 -482.5t-200.5 -482.5t-482.5 -200.5t-482.5 200.5t-200.5 482.5zM597 1024q0 -179 124 -303t303 -124q102 0 196 52l-571 571q-52 -94 -52 -196zM828 1399l571 -571q51 94 52 196q0 179 -124 303t-303 124 q-102 -1 -196 -52z"/>
      <glyph unicode="o"
             d="M597 1101l640 691l-213 -597l427 -248l-640 -691l213 597z"/>
      <glyph unicode="p"
             d="M341 1058q0 17 34 26l1204 529q17 9 34 8.5t17 -17.5t-9 -34l-606 -1212q-9 -26 -25 -25q-26 0 -26 34l-59 427q-17 77 -94 111l-436 119q-34 8 -34 34z"/>
      <glyph unicode="q"
             d="M341 1066.5q0 298.5 213.5 512t512 213.5t512 -213.5t213.5 -512t-213.5 -512t-512 -213.5t-512 213.5t-213.5 512zM614 939q43 -128 120 -205t205 -120l42 197h171l43 -197q128 43 204.5 120t119.5 205l-196 42v171l196 43q-26 111 -119.5 204.5t-204.5 119.5l-43 -196 h-171l-42 196q-128 -43 -205 -119.5t-120 -204.5l197 -43v-171z"/>
      <glyph unicode="r"
             d="M341 981l171 128h853l86 -256h-939zM512 1451h939l170 -128l-170 -128h-854zM853 427v341h256v-341h-256zM853 1536v171h256v-171h-256z"/>
      <glyph unicode="s"
             d="M512 580l324 350l-34 43q-26 17 -77 68q-162 162 -162 179t51 17h35h34h25q171 0 239 34q9 9 77 35q43 17 94 42q9 9 30 26t38 34q34 51 34 85q-9 34 -8 52q0 77 25.5 76.5t187.5 -162.5q179 -162 179 -196q-26 -26 -59 -26h-18h-25h-26q-34 0 -85 -34q-43 -43 -60 -68 q-26 -51 -42 -94q-9 -26 -26 -51l-9 -17q-26 -34 -25 -86q-17 -68 -17 -76v-26v-68l8 -77q0 -43 -34 -43q-17 0 -111 94l-77 77l-76 77l-43 42z"/>
      <glyph unicode="t"
             d="M683 896v341q0 43 42 43h171q51 0 77 26l444 290q0 9 17 8.5t17 -25.5v-1024q0 -26 -17 -26t-17 9l-444 290q-26 26 -77 25h-171q-42 0 -42 43z"/>
      <glyph unicode="u"
             d="M171 896v341q0 43 42 43h171q51 0 77 26l444 290q0 9 17 8.5t17 -25.5v-1024q0 -26 -17 -26t-17 9l-444 290q-26 26 -77 25h-171q-42 0 -42 43zM1024 1007q34 9 34 60q0 43 -34 68l60 60q60 -60 59 -128q0 -77 -59 -120zM1195 836q102 85 102 231q0 145 -102 239l59 51 q128 -111 128 -290q0 -162 -128 -290zM1374 666q171 171 171 401t-171 401l51 59q196 -196 196 -460.5t-196 -460.5z"/>
      <glyph unicode="v"
             d="M256 1024q0 316 222 538q230 230 546 230q324 0 538 -230q230 -213 230 -538q0 -316 -230 -546q-222 -222 -538 -222q-307 0 -546 222q-222 239 -222 546zM418 1357h51q43 -51 52 -51q43 -154 93 -180l43 -25q26 0 26 42q0 34 -17 52q0 34 8 42q17 34 34 43q17 34 26 34 l17 -25q26 -51 51 -60v-17q9 -26 9 -34v-17q0 -9 -9 -9q0 -9 -13 -9h-21q9 0 9 -17q9 -17 17 -25l17 -43l25 -43q9 -17 26 -34q26 -51 60 -59q34 -26 93 -26v-34l18 -9q9 0 8 -8q34 0 51 8l9 -8q-9 -34 -77 -68l-68 -26v-17q0 -9 -4.5 -26t-4.5 -42q-17 -94 -25 -103 q43 -9 68 -8q17 0 68 17l68 17q26 -17 43 -43v-25l26 -9v-34l-9 -9l9 -17h25q51 0 60 60q68 26 102 77q34 43 35 119l-9 9q-34 60 -34 77q-26 51 -26 68q17 -26 51 -26h9l43 9l-26 42v9l34 -34l-17 -43l43 26l25 -9q26 9 43 51h-17v43l-26 -17l-8 9v8q-26 0 -34 9 q-9 0 -9 17v8q-60 34 -77 34v-34v-17h-8q-43 51 -94 51h-34q-17 17 -34 17h-17v26l-17 9q0 9 -4.5 25.5t-4.5 33.5q-9 34 -26 52l9 17h-34q-17 60 -34 59l8 43v34l-25 9q-43 0 -43 -43l26 -51q-17 -34 -17 -43q0 -26 8 -34l-8 -17q-17 -17 -18 -34v-9l-76 -59q-9 0 -9 17v17 v17q0 26 -25 59l25 -8q26 0 43 60v34q0 34 -9 42q17 0 17 43q94 17 94 120q0 26 -25 76l-17 17h8q26 -43 51 -42q9 0 26 17q9 17 8 34q0 26 -17 43l-8 8v9q34 17 34 25q9 9 8 26v51q-85 17 -119 17q-376 0 -606 -358zM1084 1041v34q0 -9 17 -25zM1126 930v26q0 17 9 25v-51 h34v9v-9h9q17 0 25 9l17 -9q26 -9 26 -25q0 -9 -9 -18h-17q-34 0 -51 -17t-26 -17l-8 9q34 0 34 34v26h-26l-8 8h-9zM1263 879q9 -9 17 -9v-17q-9 -17 -9 -25v17q-8 8 -8 34zM1485 768q0 -26 25 -51q17 -17 43 -17l17 -9q17 0 17 -8q-26 85 -42 94q-26 26 -52 42 q0 -17 -8 -34v-17z"/>
      <glyph unicode="w"
             d="M341 512v853q0 68 51.5 119.5t119.5 51.5h341l-170 -171h-171v-853h853v171l171 170v-341q0 -68 -51 -119.5t-120 -51.5h-853q-68 0 -119.5 51.5t-51.5 119.5zM683 683v341l512 512l341 -341l-512 -512h-341zM853 853h171l-171 171v-171zM1280 1621l171 171l341 -341 l-171 -171z"/>
      <glyph unicode="x" d="M427 853v427h1280v-427h-1280z"/>
      <glyph unicode="y"
             d="M427 512v427h1280v-427h-1280zM427 1109v427h1280v-427h-1280z"/>
      <glyph unicode="z"
             d="M427 597.5q0 68.5 51 119.5t119 51h854q68 0 119 -51t51 -119.5t-51 -119.5t-119 -51h-854q-68 0 -119 51t-51 119.5zM427 1024q0 68 51 119.5t119 51.5h854q68 0 119 -51.5t51 -119.5t-51 -119.5t-119 -51.5h-854q-68 0 -119 51.5t-51 119.5zM427 1450.5 q0 68.5 51 119.5t119 51h854q68 0 119 -51t51 -119.5t-51 -119.5t-119 -51h-854q-68 0 -119 51t-51 119.5z"/>
      <glyph unicode="{"
             d="M427 461v1126q0 119 119 120h17q119 0 120 -120v-648v-86v-392q0 -119 -120 -120h-17q-119 1 -119 120zM768 939v648h85q171 0 256.5 -68t255.5 -68h171v-683h-171q-171 0 -256 85.5t-256 85.5h-85z"/>
      <glyph unicode="|"
             d="M657 1169q119 94 239 94h9q85 0 145 -51q68 -51 68 -137q0 -60 -94 -205q-85 -119 -85 -179q0 -94 111 -94q43 0 85 26q-111 -94 -239 -94q-94 0 -154 51q-68 51 -68 137q0 60 94 205q85 119 85 179q0 94 -111 94q-42 0 -85 -26zM939 1536q0 68 51 119.5t119.5 51.5 t119.5 -51.5t51 -119.5t-51 -119.5t-119.5 -51.5t-119.5 51.5t-51 119.5z"/>
      <glyph unicode="}"
             d="M606 1323q0 162 128 273q137 111 290 111q188 0 299 -128q128 -111 128 -299q0 -154 -120 -239q-222 -162 -222 -273h-256v43q0 171 120 247q9 9 89.5 56t106.5 81t26 85q0 68 -51.5 119.5t-119.5 51.5t-111 -43t-51 -85q-9 -34 -43 -86q-17 -43 -85 -42q-60 0 -94 34 q-34 43 -34 94zM819 469.5q0 59.5 51 110.5q34 43 111 43q68 0 111 -42.5t43 -111.5q0 -77 -43 -111q-51 -51 -110.5 -51t-111 51.5t-51.5 111z"/>
      <glyph unicode="~"
             d="M256 853v512q0 111 72.5 183.5t183.5 72.5h939q111 0 183.5 -72.5t72.5 -183.5v-512q0 -111 -72.5 -183.5t-183.5 -72.5h-598l-256 -256v256h-85q-111 0 -183.5 72.5t-72.5 183.5zM427 853q0 -85 85 -85h939q85 0 85 85v512q0 85 -85 86h-939q-85 0 -85 -86v-512z M512 1109.5q0 51.5 38.5 89.5t89.5 38t89.5 -38t38.5 -89.5t-38.5 -90t-89.5 -38.5t-89.5 38.5t-38.5 90zM853 1109.5q0 51.5 38.5 89.5t90 38t89.5 -38t38 -89.5t-38 -90t-89.5 -38.5t-90 38.5t-38.5 90zM1195 1109.5q0 51.5 38 89.5t89.5 38t90 -38t38.5 -89.5t-38.5 -90 t-90 -38.5t-89.5 38.5t-38 90z"/>
      <glyph unicode="&#xaa;"
             d="M512 341.5q0 85.5 85 85.5h342v102q-213 26 -393 188q-17 17 -17 60q0 34 17 51q26 26 51 25q34 0 60 -25q119 -119 282 -145h170q162 26 282 145q154 154 154 367t-154 367l-51 59l230 222q17 26 51 26t52 -26q26 -17 25.5 -51t-25.5 -51l-120 -128q145 -188 145 -418 q0 -265 -196 -478q-179 -162 -393 -188v-102h342q85 0 85 -85.5t-85 -85.5h-854q-85 0 -85 85.5zM606 1194.5q0 170.5 123.5 294.5t294.5 124t294.5 -124t123.5 -294.5t-123.5 -294t-294.5 -123.5t-294.5 123.5t-123.5 294z"/>
      <glyph unicode="&#xad;"
             d="M512 512v1024q0 102 77 179t179 77h512q102 0 179 -77t77 -179v-1024q0 -102 -77 -179t-179 -77h-512q-102 0 -179 77t-77 179zM683 512h682v1024h-682v-1024zM853 1664q0 -43 43 -43h256q43 0 43 43t-43 43h-256q-43 0 -43 -43zM964.5 324.5q59.5 -59.5 119 0t0 119 t-119 0t0 -119z"/>
      <glyph unicode="&#xb2;"
             d="M171 768v597q0 102 76.5 179t179.5 77h938q85 0 145 -85q68 -68 111 -171h17q17 9 26 9q60 0 94 -51q34 -43 34 -120v-273q0 -85 -51 -136q-26 -34 -68 -35q-34 0 -52 9q0 -102 -76.5 -179t-179.5 -77h-938q-102 0 -179 77t-77 179zM341 768q0 -85 86 -85h938q85 0 86 85 v597q0 85 -86 86h-938q-85 0 -86 -86v-597zM427 768v597h256v-597h-256zM768 768v597h256v-597h-256z"/>
      <glyph unicode="&#xb3;"
             d="M171 768v597q0 102 76.5 179t179.5 77h938q85 0 145 -85q68 -68 111 -171h17q17 9 26 9q60 0 94 -51q34 -43 34 -120v-273q0 -85 -51 -136q-26 -34 -68 -35q-34 0 -52 9q0 -102 -76.5 -179t-179.5 -77h-938q-102 0 -179 77t-77 179zM341 768q0 -85 86 -85h938q85 0 86 85 v597q0 85 -86 86h-938q-85 0 -86 -86v-597zM427 768v597h256v-597h-256zM768 768v597h256v-597h-256zM1109 768v597h256v-597h-256z"/>
      <glyph unicode="&#xb9;"
             d="M171 768v597q0 102 76.5 179t179.5 77h938q85 0 145 -85q68 -68 111 -171h17q17 9 26 9q60 0 94 -51q34 -43 34 -120v-273q0 -85 -51 -136q-26 -34 -68 -35q-34 0 -52 9q0 -102 -76.5 -179t-179.5 -77h-938q-102 0 -179 77t-77 179zM341 768q0 -85 86 -85h938q85 0 86 85 v597q0 85 -86 86h-938q-85 0 -86 -86v-597zM427 768v597h256v-597h-256z"/>
      <glyph unicode="&#xba;"
             d="M597 1101l640 691l-213 -597l427 -248l-640 -691l213 597z"/>
      <glyph unicode="&#xc2;"
             d="M376 2594q0 34 68 145q17 26 72.5 107t98.5 132l110 145q51 68 137 68h939q85 0 85 -85v-1024q0 -85 -85 -85h-939q-68 0 -137 68q0 9 -110 145q-43 51 -103 132t-68 98q-68 111 -68 154zM888 2338l145 -145l256 256l256 -256l145 145l-256 256l256 256l-145 145 l-256 -256l-256 256l-145 -145l256 -256zM427 1203q0 282 204 478q196 196 478 196t478 -196q205 -196 205 -478q0 -230 -171 -444q-85 -111 -153 -170q-43 -51 -188 -179q-154 -137 -171 -154q-85 85 -170 154q-77 68 -188 179q-68 60 -154 170q-170 197 -170 444z M811 1195q0 -128 85 -213.5t213 -85.5t213.5 85.5t85.5 213.5t-85.5 213t-213.5 85t-213 -85t-85 -213z"/>
      <glyph unicode="&#xc3;"
             d="M427 2508v512q0 111 72.5 183.5t183.5 72.5h939q111 0 183.5 -72.5t72.5 -183.5v-512q0 -111 -72.5 -183.5t-183.5 -72.5h-598l-256 -256v256h-85q-111 0 -183.5 72.5t-72.5 183.5zM598 2508q0 -85 85 -85h939q85 0 85 85v512q0 85 -85 86h-939q-85 0 -85 -86v-512z M683 2764.5q0 51.5 38.5 89.5t89.5 38t89.5 -38t38.5 -89.5t-38.5 -90t-89.5 -38.5t-89.5 38.5t-38.5 90zM1024 2764.5q0 51.5 38.5 89.5t90 38t89.5 -38t38 -89.5t-38 -90t-89.5 -38.5t-90 38.5t-38.5 90zM1366 2764.5q0 51.5 38 89.5t89.5 38t90 -38t38.5 -89.5t-38.5 -90 t-90 -38.5t-89.5 38.5t-38 90zM427 1203q0 282 204 478q196 196 478 196t478 -196q205 -196 205 -478q0 -230 -171 -444q-85 -111 -153 -170q-43 -51 -188 -179q-154 -137 -171 -154q-85 85 -170 154q-77 68 -188 179q-68 60 -154 170q-170 197 -170 444zM811 1195 q0 -128 85 -213.5t213 -85.5t213.5 85.5t85.5 213.5t-85.5 213t-213.5 85t-213 -85t-85 -213z"/>
      <glyph unicode="&#xca;"
             d="M171 2423q0 34 68 145q17 26 72.5 107t98.5 132l110 145q51 68 137 68h939q85 0 85 -85v-1024q0 -85 -85 -85h-939q-68 0 -137 68q0 9 -110 145q-43 51 -103 132t-68 98q-68 111 -68 154zM683 2167l145 -145l256 256l256 -256l145 145l-256 256l256 256l-145 145 l-256 -256l-256 256l-145 -145l256 -256zM341 1041v26v25l9 17v9q9 9 17 21.5t8 21.5l427 426q34 34 94 34t94 -34t34 -93.5t-34 -94.5l-213 -204h802q51 0 89.5 -38.5t38.5 -90t-38.5 -89.5t-89.5 -38h-802l213 -205q34 -34 34 -94t-34 -94t-94 -34t-94 34l-427 427 q0 9 -8.5 21.5t-16.5 20.5v9z"/>
      <glyph unicode="&#xce;"
             d="M888 2423q0 34 68 145q17 26 72.5 107t98.5 132l110 145q51 68 137 68h939q85 0 85 -85v-1024q0 -85 -85 -85h-939q-68 0 -137 68q0 9 -110 145q-43 51 -103 132t-68 98q-68 111 -68 154zM1400 2167l145 -145l256 256l256 -256l145 145l-256 256l256 256l-145 145 l-256 -256l-256 256l-145 -145l256 -256zM401 1024q0 256 179 435q188 188 444 188q239 0 393 -145l204 205v-598h-597l239 239q-119 77 -239 77q-162 0 -281.5 -119.5t-119.5 -281.5t119.5 -281.5t281.5 -119.5q137 0 256 94q111 102 137 239l221 -34q-34 -222 -213 -376 q-188 -145 -401 -145q-256 0 -444 179q-179 188 -179 444z"/>
      <glyph unicode="&#xd1;"
             d="M-333 2338v512q0 111 72.5 183.5t183.5 72.5h939q111 0 183.5 -72.5t72.5 -183.5v-512q0 -111 -72.5 -183.5t-183.5 -72.5h-598l-256 -256v256h-85q-111 0 -183.5 72.5t-72.5 183.5zM-162 2338q0 -85 85 -85h939q85 0 85 85v512q0 85 -85 86h-939q-85 0 -85 -86v-512z M-77 2594.5q0 51.5 38.5 89.5t89.5 38t89.5 -38t38.5 -89.5t-38.5 -90t-89.5 -38.5t-89.5 38.5t-38.5 90zM264 2594.5q0 51.5 38.5 89.5t90 38t89.5 -38t38 -89.5t-38 -90t-89.5 -38.5t-90 38.5t-38.5 90zM606 2594.5q0 51.5 38 89.5t89.5 38t90 -38t38.5 -89.5t-38.5 -90 t-90 -38.5t-89.5 38.5t-38 90zM341 512q0 68 51.5 119.5t119.5 51.5t119.5 -51.5t51.5 -119.5t-51.5 -119.5t-119.5 -51.5t-119.5 51.5t-51.5 119.5zM341 930v256q333 0 598 -247q247 -265 247 -598h-256q0 239 -179 410q-171 179 -410 179zM341 1408v256q282 0 512 -111 q239 -102 427 -273q171 -188 273 -427q111 -230 111 -512h-256q0 273 -145 538q-137 247 -384 384q-265 145 -538 145z"/>
      <glyph unicode="&#xd4;"
             d="M291 2423q0 34 68 145q17 26 72.5 107t98.5 132l110 145q51 68 137 68h939q85 0 85 -85v-1024q0 -85 -85 -85h-939q-68 0 -137 68q0 9 -110 145q-43 51 -103 132t-68 98q-68 111 -68 154zM803 2167l145 -145l256 256l256 -256l145 145l-256 256l256 256l-145 145 l-256 -256l-256 256l-145 -145l256 -256zM367 802l230 222l-230 222l136 239l308 -94l76 316h274l76 -316l308 94l136 -239l-230 -222l230 -222l-136 -239l-308 94l-76 -316h-274l-76 316l-308 -94zM845 1024q0 -77 51 -128t128 -51t128 51t51 128t-51 128t-128 51t-128 -51 t-51 -128z"/>
      <glyph unicode="&#xd5;"
             d="M341 2338v512q0 111 72.5 183.5t183.5 72.5h939q111 0 183.5 -72.5t72.5 -183.5v-512q0 -111 -72.5 -183.5t-183.5 -72.5h-598l-256 -256v256h-85q-111 0 -183.5 72.5t-72.5 183.5zM512 2338q0 -85 85 -85h939q85 0 85 85v512q0 85 -85 86h-939q-85 0 -85 -86v-512z M597 2594.5q0 51.5 38.5 89.5t89.5 38t89.5 -38t38.5 -89.5t-38.5 -90t-89.5 -38.5t-89.5 38.5t-38.5 90zM938 2594.5q0 51.5 38.5 89.5t90 38t89.5 -38t38 -89.5t-38 -90t-89.5 -38.5t-90 38.5t-38.5 90zM1280 2594.5q0 51.5 38 89.5t89.5 38t90 -38t38.5 -89.5t-38.5 -90 t-90 -38.5t-89.5 38.5t-38 90zM367 802l230 222l-230 222l136 239l308 -94l76 316h274l76 -316l308 94l136 -239l-230 -222l230 -222l-136 -239l-308 94l-76 -316h-274l-76 316l-308 -94zM845 1024q0 -77 51 -128t128 -51t128 51t51 128t-51 128t-128 51t-128 -51t-51 -128z "/>
      <glyph unicode="&#xdb;"
             d="M120 2509q0 34 68 145q17 26 72.5 107t98.5 132l110 145q51 68 137 68h939q85 0 85 -85v-1024q0 -85 -85 -85h-939q-68 0 -137 68q0 9 -110 145q-43 51 -103 132t-68 98q-68 111 -68 154zM632 2253l145 -145l256 256l256 -256l145 145l-256 256l256 256l-145 145 l-256 -256l-256 256l-145 -145l256 -256zM256 1195q0 256 179 418q162 179 418 179t418 -179q179 -162 180 -418q0 -145 -60 -265l239 -239q51 -60 51 -136.5t-60 -127.5q-51 -60 -127.5 -60t-136.5 51l-239 239q-119 -60 -265 -60q-256 0 -418 180q-179 162 -179 418z M427 1195q0 -188 128 -299q128 -128 298.5 -128t298.5 128t128 298.5t-128 298.5q-111 128 -299 128q-171 0 -298.5 -127.5t-127.5 -298.5zM597 1109v171h512v-171h-512z"/>
      <glyph unicode="&#xe2;"
             d="M888 2586q0 34 68 145q17 26 72.5 107t98.5 132l110 145q51 68 137 68h939q85 0 85 -85v-1024q0 -85 -85 -85h-939q-68 0 -137 68q0 9 -110 145q-43 51 -103 132t-68 98q-68 111 -68 154zM1400 2330l145 -145l256 256l256 -256l145 145l-256 256l256 256l-145 145 l-256 -256l-256 256l-145 -145l256 -256zM512 341.5q0 85.5 85 85.5h342v102q-213 26 -393 188q-17 17 -17 60q0 34 17 51q26 26 51 25q34 0 60 -25q119 -119 282 -145h170q162 26 282 145q154 154 154 367t-154 367l-51 59l230 222q17 26 51 26t52 -26q26 -17 25.5 -51 t-25.5 -51l-120 -128q145 -188 145 -418q0 -265 -196 -478q-179 -162 -393 -188v-102h342q85 0 85 -85.5t-85 -85.5h-854q-85 0 -85 85.5zM606 1194.5q0 170.5 123.5 294.5t294.5 124t294.5 -124t123.5 -294.5t-123.5 -294t-294.5 -123.5t-294.5 123.5t-123.5 294z"/>
      <glyph unicode="&#xe3;"
             d="M939 2500v512q0 111 72.5 183.5t183.5 72.5h939q111 0 183.5 -72.5t72.5 -183.5v-512q0 -111 -72.5 -183.5t-183.5 -72.5h-598l-256 -256v256h-85q-111 0 -183.5 72.5t-72.5 183.5zM1110 2500q0 -85 85 -85h939q85 0 85 85v512q0 85 -85 86h-939q-85 0 -85 -86v-512z M1195 2756.5q0 51.5 38.5 89.5t89.5 38t89.5 -38t38.5 -89.5t-38.5 -90t-89.5 -38.5t-89.5 38.5t-38.5 90zM1536 2756.5q0 51.5 38.5 89.5t90 38t89.5 -38t38 -89.5t-38 -90t-89.5 -38.5t-90 38.5t-38.5 90zM1878 2756.5q0 51.5 38 89.5t89.5 38t90 -38t38.5 -89.5 t-38.5 -90t-90 -38.5t-89.5 38.5t-38 90zM512 341.5q0 85.5 85 85.5h342v102q-213 26 -393 188q-17 17 -17 60q0 34 17 51q26 26 51 25q34 0 60 -25q119 -119 282 -145h170q162 26 282 145q154 154 154 367t-154 367l-51 59l230 222q17 26 51 26t52 -26q26 -17 25.5 -51 t-25.5 -51l-120 -128q145 -188 145 -418q0 -265 -196 -478q-179 -162 -393 -188v-102h342q85 0 85 -85.5t-85 -85.5h-854q-85 0 -85 85.5zM606 1194.5q0 170.5 123.5 294.5t294.5 124t294.5 -124t123.5 -294.5t-123.5 -294t-294.5 -123.5t-294.5 123.5t-123.5 294z"/>
      <glyph unicode="&#xea;"
             d="M376 2509q0 34 68 145q17 26 72.5 107t98.5 132l110 145q51 68 137 68h939q85 0 85 -85v-1024q0 -85 -85 -85h-939q-68 0 -137 68q0 9 -110 145q-43 51 -103 132t-68 98q-68 111 -68 154zM888 2253l145 -145l256 256l256 -256l145 145l-256 256l256 256l-145 145 l-256 -256l-256 256l-145 -145l256 -256zM256 512v768q0 68 51 119.5t120 51.5h768q68 0 119 -51.5t51 -119.5v-768q0 -68 -51 -119.5t-119 -51.5h-768q-68 0 -119.5 51.5t-51.5 119.5zM427 512h768v768h-768v-768zM512 1536v85q0 68 51 119.5t120 51.5h853q68 0 119.5 -51 t51.5 -120v-853q0 -119 -86 -145q-77 -26 -170 -26v171h85v853h-853v-85h-171z"/>
      <glyph unicode="&#xee;"
             d="M598 2509q0 34 68 145q17 26 72.5 107t98.5 132l110 145q51 68 137 68h939q85 0 85 -85v-1024q0 -85 -85 -85h-939q-68 0 -137 68q0 9 -110 145q-43 51 -103 132t-68 98q-68 111 -68 154zM1110 2253l145 -145l256 256l256 -256l145 145l-256 256l256 256l-145 145 l-256 -256l-256 256l-145 -145l256 -256zM427 512v597q0 85 85 86h512v17v42v60l9 94q0 43 17 94l25 77q17 43 60 68q60 60 188 60t213 -85.5t85 -213.5v-299h-170q0 43 8 86v111q0 68 -8 111q-17 119 -128 119q-43 0 -94 -34q-34 -34 -34 -94v-213h25h26h8h35l51 -26 q26 -9 25 -60v-597q0 -85 -85 -85h-768q-85 0 -85 85z"/>
      <glyph unicode="&#xf1;"
             d="M384 2423v512q0 111 72.5 183.5t183.5 72.5h939q111 0 183.5 -72.5t72.5 -183.5v-512q0 -111 -72.5 -183.5t-183.5 -72.5h-598l-256 -256v256h-85q-111 0 -183.5 72.5t-72.5 183.5zM555 2423q0 -85 85 -85h939q85 0 85 85v512q0 85 -85 86h-939q-85 0 -85 -86v-512z M640 2679.5q0 51.5 38.5 89.5t89.5 38t89.5 -38t38.5 -89.5t-38.5 -90t-89.5 -38.5t-89.5 38.5t-38.5 90zM981 2679.5q0 51.5 38.5 89.5t90 38t89.5 -38t38 -89.5t-38 -90t-89.5 -38.5t-90 38.5t-38.5 90zM1323 2679.5q0 51.5 38 89.5t89.5 38t90 -38t38.5 -89.5t-38.5 -90 t-90 -38.5t-89.5 38.5t-38 90zM341 1024q0 282 200.5 482.5t482.5 200.5t482.5 -200.5t200.5 -482.5t-200.5 -482.5t-482.5 -200.5t-482.5 200.5t-200.5 482.5zM597 1024q0 -179 124 -303t303 -124q102 0 196 52l-571 571q-52 -94 -52 -196zM828 1399l571 -571q51 94 52 196 q0 179 -124 303t-303 124q-102 -1 -196 -52z"/>
      <glyph unicode="&#xf4;"
             d="M504 2509q0 34 68 145q17 26 72.5 107t98.5 132l110 145q51 68 137 68h939q85 0 85 -85v-1024q0 -85 -85 -85h-939q-68 0 -137 68q0 9 -110 145q-43 51 -103 132t-68 98q-68 111 -68 154zM1016 2253l145 -145l256 256l256 -256l145 145l-256 256l256 256l-145 145 l-256 -256l-256 256l-145 -145l256 -256zM597 1101l640 691l-213 -597l427 -248l-640 -691l213 597z"/>
      <glyph unicode="&#xf5;"
             d="M555 2423v512q0 111 72.5 183.5t183.5 72.5h939q111 0 183.5 -72.5t72.5 -183.5v-512q0 -111 -72.5 -183.5t-183.5 -72.5h-598l-256 -256v256h-85q-111 0 -183.5 72.5t-72.5 183.5zM726 2423q0 -85 85 -85h939q85 0 85 85v512q0 85 -85 86h-939q-85 0 -85 -86v-512z M811 2679.5q0 51.5 38.5 89.5t89.5 38t89.5 -38t38.5 -89.5t-38.5 -90t-89.5 -38.5t-89.5 38.5t-38.5 90zM1152 2679.5q0 51.5 38.5 89.5t90 38t89.5 -38t38 -89.5t-38 -90t-89.5 -38.5t-90 38.5t-38.5 90zM1494 2679.5q0 51.5 38 89.5t89.5 38t90 -38t38.5 -89.5t-38.5 -90 t-90 -38.5t-89.5 38.5t-38 90zM597 1101l640 691l-213 -597l427 -248l-640 -691l213 597z"/>
      <glyph unicode="&#xfb;"
             d="M197 2509q0 34 68 145q17 26 72.5 107t98.5 132l110 145q51 68 137 68h939q85 0 85 -85v-1024q0 -85 -85 -85h-939q-68 0 -137 68q0 9 -110 145q-43 51 -103 132t-68 98q-68 111 -68 154zM709 2253l145 -145l256 256l256 -256l145 145l-256 256l256 256l-145 145 l-256 -256l-256 256l-145 -145l256 -256zM171 896v341q0 43 42 43h171q51 0 77 26l444 290q0 9 17 8.5t17 -25.5v-1024q0 -26 -17 -26t-17 9l-444 290q-26 26 -77 25h-171q-42 0 -42 43zM1024 1007q34 9 34 60q0 43 -34 68l60 60q60 -60 59 -128q0 -77 -59 -120zM1195 836 q102 85 102 231q0 145 -102 239l59 51q128 -111 128 -290q0 -162 -128 -290zM1374 666q171 171 171 401t-171 401l51 59q196 -196 196 -460.5t-196 -460.5z"/>
      <glyph unicode="&#x152;" horiz-adv-x="4096"
             d="M2389 1041v26v25l9 17v9q9 9 17 21.5t8 21.5l427 426q34 34 94 34t94 -34t34 -93.5t-34 -94.5l-213 -204h802q51 0 89.5 -38.5t38.5 -90t-38.5 -89.5t-89.5 -38h-802l213 -205q34 -34 34 -94t-34 -94t-94 -34t-94 34l-427 427q0 9 -8.5 21.5t-16.5 20.5v9zM367 802 l230 222l-230 222l136 239l308 -94l76 316h274l76 -316l308 94l136 -239l-230 -222l230 -222l-136 -239l-308 94l-76 -316h-274l-76 316l-308 -94zM845 1024q0 -77 51 -128t128 -51t128 51t51 128t-51 128t-128 51t-128 -51t-51 -128z"/>
      <glyph unicode="&#x153;" horiz-adv-x="4096"
             d="M2304 512v768q0 68 51 119.5t120 51.5h768q68 0 119 -51.5t51 -119.5v-768q0 -68 -51 -119.5t-119 -51.5h-768q-68 0 -119.5 51.5t-51.5 119.5zM2475 512h768v768h-768v-768zM2560 1536v85q0 68 51 119.5t120 51.5h853q68 0 119.5 -51t51.5 -120v-853q0 -119 -86 -145 q-77 -26 -170 -26v171h85v853h-853v-85h-171zM597 1101l640 691l-213 -597l427 -248l-640 -691l213 597z"/>
      <glyph unicode="&#x2c6;"
             d="M282 1024q0 34 68 145q17 26 72.5 107t98.5 132l110 145q51 68 137 68h939q85 0 85 -85v-1024q0 -85 -85 -85h-939q-68 0 -137 68q0 9 -110 145q-43 51 -103 132t-68 98q-68 111 -68 154zM794 768l145 -145l256 256l256 -256l145 145l-256 256l256 256l-145 145 l-256 -256l-256 256l-145 -145l256 -256z"/>
      <glyph unicode="&#x2dc;" horiz-adv-x="1024"
             d="M-683 631v512q0 111 72.5 183.5t183.5 72.5h939q111 0 183.5 -72.5t72.5 -183.5v-512q0 -111 -72.5 -183.5t-183.5 -72.5h-598l-256 -256v256h-85q-111 0 -183.5 72.5t-72.5 183.5zM-512 631q0 -85 85 -85h939q85 0 85 85v512q0 85 -85 86h-939q-85 0 -85 -86v-512z M-427 887.5q0 51.5 38.5 89.5t89.5 38t89.5 -38t38.5 -89.5t-38.5 -90t-89.5 -38.5t-89.5 38.5t-38.5 90zM-86 887.5q0 51.5 38.5 89.5t90 38t89.5 -38t38 -89.5t-38 -90t-89.5 -38.5t-90 38.5t-38.5 90zM256 887.5q0 51.5 38 89.5t89.5 38t90 -38t38.5 -89.5t-38.5 -90 t-90 -38.5t-89.5 38.5t-38 90z"/>
      <glyph unicode="&#x2000;" horiz-adv-x="1638"/>
      <glyph unicode="&#x2001;" horiz-adv-x="3276"/>
      <glyph unicode="&#x2002;" horiz-adv-x="1638"/>
      <glyph unicode="&#x2003;" horiz-adv-x="3276"/>
      <glyph unicode="&#x2004;" horiz-adv-x="1092"/>
      <glyph unicode="&#x2005;" horiz-adv-x="819"/>
      <glyph unicode="&#x2006;" horiz-adv-x="546"/>
      <glyph unicode="&#x2007;" horiz-adv-x="546"/>
      <glyph unicode="&#x2008;" horiz-adv-x="409"/>
      <glyph unicode="&#x2009;" horiz-adv-x="648"/>
      <glyph unicode="&#x200a;" horiz-adv-x="179"/>
      <glyph unicode="&#x2010;"
             d="M512 512v1024q0 102 77 179t179 77h512q102 0 179 -77t77 -179v-1024q0 -102 -77 -179t-179 -77h-512q-102 0 -179 77t-77 179zM683 512h682v1024h-682v-1024zM853 1664q0 -43 43 -43h256q43 0 43 43t-43 43h-256q-43 0 -43 -43zM964.5 324.5q59.5 -59.5 119 0t0 119 t-119 0t0 -119z"/>
      <glyph unicode="&#x2011;"
             d="M512 512v1024q0 102 77 179t179 77h512q102 0 179 -77t77 -179v-1024q0 -102 -77 -179t-179 -77h-512q-102 0 -179 77t-77 179zM683 512h682v1024h-682v-1024zM853 1664q0 -43 43 -43h256q43 0 43 43t-43 43h-256q-43 0 -43 -43zM964.5 324.5q59.5 -59.5 119 0t0 119 t-119 0t0 -119z"/>
      <glyph unicode="&#x2012;"
             d="M512 512v1024q0 102 77 179t179 77h512q102 0 179 -77t77 -179v-1024q0 -102 -77 -179t-179 -77h-512q-102 0 -179 77t-77 179zM683 512h682v1024h-682v-1024zM853 1664q0 -43 43 -43h256q43 0 43 43t-43 43h-256q-43 0 -43 -43zM964.5 324.5q59.5 -59.5 119 0t0 119 t-119 0t0 -119z"/>
      <glyph unicode="&#x2013;" horiz-adv-x="1024" d="M512 256v1536v-1536z"/>
      <glyph unicode="&#x2014;" d="M512 256v1536h1024v-1536h-1024z"/>
      <glyph unicode="&#x2019;"
             d="M401 1476q0 68 43 137q51 51 119 51t128 -60q43 -43 86 -128q60 -128 102 -179q51 -85 145 -162q77 68 145 171q85 119 111 170q43 77 85 137q77 60 120 60q51 0 85 -26q85 60 136.5 60t76.5 -34l-59 8q-68 -26 -103 -85q34 -43 34 -111t-51 -137q-60 -60 -128 -59 q-34 0 -68 17t-60 34l-17 17q-43 0 -213 -324q9 0 128 -137t171 -222q60 -102 59 -171q0 -85 -51 -162l-401 538l-393 -538q-51 77 -51 162.5t60 170.5q26 51 162 222l128 137l-8 8l-22 43q-13 26 -30 42q-17 43 -85 154q-43 68 -60 68q-9 0 -51 -34q-51 -34 -94 -34 q-77 0 -128 68q-51 51 -51 128zM469 1485q0 -128 120 -128q43 0 77 30t34 72q0 51 -43 94t-85 43q-103 0 -103 -111zM1357 1468q0 -43 34 -77q26 -26 77 -26t85 34q34 51 34 86q0 111 -102 111q-60 0 -94 -34q-34 -43 -34 -94z"/>
      <glyph unicode="&#x201c;"
             d="M427 427v341h341v-341h-341zM427 853v342h341v-342h-341zM427 1280v341h341v-341h-341zM853 427v341h342v-341h-342zM853 853v342h342v-342h-342zM853 1280v341h342v-341h-342zM1280 427v341h341v-341h-341zM1280 853v342h341v-342h-341zM1280 1280v341h341v-341h-341z "/>
      <glyph unicode="&#x201d;"
             d="M427 427v341h341v-341h-341zM427 853v342h341v-342h-341zM427 1280v341h341v-341h-341zM853 427v341h342v-341h-342zM853 853v342h342v-342h-342zM853 1280v341h342v-341h-342zM1280 427v341h341v-341h-341zM1280 853v342h341v-342h-341zM1280 1280v341h341v-341h-341z "/>
      <glyph unicode="&#x2026;" horiz-adv-x="6144"
             d="M4437 1024q0 290 205 478q188 205 478 205t478 -205q205 -188 205 -478t-205 -478q-188 -205 -478 -205t-478 205q-205 188 -205 478zM4608 1024q0 -222 154 -358q137 -154 358 -154v1024q-222 0 -358 -154q-154 -136 -154 -358zM2389 1024q0 290 205 478 q188 205 478 205t478 -205q205 -188 205 -478t-205 -478q-188 -205 -478 -205t-478 205q-205 188 -205 478zM2560 1024q0 -222 154 -358q137 -154 358 -154v1024q-222 0 -358 -154q-154 -136 -154 -358zM341 1024q0 290 205 478q188 205 478 205t478 -205q205 -188 205 -478 t-205 -478q-188 -205 -478 -205t-478 205q-205 188 -205 478zM512 1024q0 -222 154 -358q137 -154 358 -154v1024q-222 0 -358 -154q-154 -136 -154 -358z"/>
      <glyph unicode="&#x202f;" horiz-adv-x="648"/>
      <glyph unicode="&#x205f;" horiz-adv-x="819"/>
      <glyph unicode="&#x2122;" horiz-adv-x="4096"
             d="M2475 597v256q94 -9 213 -8q51 0 94 42q51 68 68 111q9 26 60 137q51 102 85 145q94 154 333 162v179l299 -298l-299 -299l299 -299l-299 -298v179q-85 0 -154 17q-68 34 -119 85q60 68 119 205q51 -68 86 -68h8h60v179v179h-60h-8q-34 0 -86 -68q-43 -51 -85 -154 q-60 -119 -102 -179q-68 -111 -137 -145q-43 -34 -94 -43q-34 -9 -85 -8l-102 -9h-94zM2475 1195v256h94q77 0 102 -9q43 0 77 -8q94 -26 170 -94q-85 -94 -119 -205q-51 68 -111 68q-119 1 -213 -8zM341 1109q145 213 350 359q205 154 418 153q205 0 427 -153 q239 -196 341 -359q-102 -162 -341 -358q-222 -154 -427 -154q-213 0 -418 154q-205 145 -350 358zM785 1109q0 -119 94 -230q111 -94 230 -94q128 0 222 94q102 102 103 230q0 137 -103 222q-85 102 -222 103q-128 0 -230 -103q-94 -94 -94 -222zM939 1109.5 q0 68.5 51 119.5t119.5 51t119.5 -51t51 -119.5t-51 -119.5t-119.5 -51t-119.5 51t-51 119.5z"/>
      <glyph unicode="&#xe000;" horiz-adv-x="1280"
             d="M0 1280h1280v-1280h-1280v1280z"/>
      <glyph unicode="&#xfb01;" horiz-adv-x="4096"
             d="M2475 512v597q0 85 85 86h512v17v42v60l9 94q0 43 17 94l25 77q17 43 60 68q60 60 188 60t213 -85.5t85 -213.5v-299h-170q0 43 8 86v111q0 68 -8 111q-17 119 -128 119q-43 0 -94 -34q-34 -34 -34 -94v-213h25h26h8h35l51 -26q26 -9 25 -60v-597q0 -85 -85 -85h-768 q-85 0 -85 85zM341 503q0 17 17 69l598 990q34 60 85 59q60 0 85 -59l598 -990q17 -26 17 -69q0 -77 -103 -76h-1194q-103 -1 -103 76zM913 1280l85 -427h86l85 427h-256zM956 597h170v171h-170v-171z"/>
      <glyph unicode="&#xfb02;" horiz-adv-x="4096"
             d="M2304 1024l341 341v-170h256v256h-170l341 341l341 -341h-170v-256h256v170l341 -341l-341 -341v170h-256v-256h170l-341 -341l-341 341h170v256h-256v-170zM341 503q0 17 17 69l598 990q34 60 85 59q60 0 85 -59l598 -990q17 -26 17 -69q0 -77 -103 -76h-1194 q-103 -1 -103 76zM913 1280l85 -427h86l85 427h-256zM956 597h170v171h-170v-171z"/>
      <glyph unicode="&#xfb03;" horiz-adv-x="6144"
             d="M4523 512v597q0 85 85 86h512v17v42v60l9 94q0 43 17 94l25 77q17 43 60 68q60 60 188 60t213 -85.5t85 -213.5v-299h-170q0 43 8 86v111q0 68 -8 111q-17 119 -128 119q-43 0 -94 -34q-34 -34 -34 -94v-213h25h26h8h35l51 -26q26 -9 25 -60v-597q0 -85 -85 -85h-768 q-85 0 -85 85zM2389 503q0 17 17 69l598 990q34 60 85 59q60 0 85 -59l598 -990q17 -26 17 -69q0 -77 -103 -76h-1194q-103 -1 -103 76zM2961 1280l85 -427h86l85 427h-256zM3004 597h170v171h-170v-171zM341 503q0 17 17 69l598 990q34 60 85 59q60 0 85 -59l598 -990 q17 -26 17 -69q0 -77 -103 -76h-1194q-103 -1 -103 76zM913 1280l85 -427h86l85 427h-256zM956 597h170v171h-170v-171z"/>
      <glyph unicode="&#xfb04;" horiz-adv-x="6144"
             d="M4352 1024l341 341v-170h256v256h-170l341 341l341 -341h-170v-256h256v170l341 -341l-341 -341v170h-256v-256h170l-341 -341l-341 341h170v256h-256v-170zM2389 503q0 17 17 69l598 990q34 60 85 59q60 0 85 -59l598 -990q17 -26 17 -69q0 -77 -103 -76h-1194 q-103 -1 -103 76zM2961 1280l85 -427h86l85 427h-256zM3004 597h170v171h-170v-171zM341 503q0 17 17 69l598 990q34 60 85 59q60 0 85 -59l598 -990q17 -26 17 -69q0 -77 -103 -76h-1194q-103 -1 -103 76zM913 1280l85 -427h86l85 427h-256zM956 597h170v171h-170v-171z "/>
    </font>
</defs>
</svg>
