<svg width="106" height="106" viewBox="0 0 106 106" fill="none"
     xmlns="http://www.w3.org/2000/svg">
    <g clip-path="url(#clip0_127_479)">
        <path d="M106 0H0V106H106V0Z" fill="white"/>
        <path fill-rule="evenodd" clip-rule="evenodd"
              d="M42.4951 80.6553C57.3004 84.8188 64.5044 68.8414 77.1898 70.0568C84.1338 70.7222 97.975 74.0949 97.944 49.5276C97.8667 33.6669 83.2476 29.6953 68.1723 37.8292C63.7363 39.564 60.234 39.0264 56.4313 37.3027C52.6287 35.579 47.7382 27.8838 38.5208 26.3007C10.7829 21.5368 -12.9504 65.0633 42.4951 80.6553Z"
              fill="#64FCD9"/>
        <path fill-rule="evenodd" clip-rule="evenodd"
              d="M77.6781 40.753C77.9558 40.6179 78.4541 40.8798 78.1651 41.3013C77.5249 42.2346 80.0006 44.099 79.2059 42.4561C79.1209 42.2804 78.6852 41.0657 79.3017 41.6929C79.9183 42.32 80.7779 45.0914 80.2219 46.0463C79.734 46.8842 78.4428 47.2829 76.6801 47.33L76.6008 47.3318L76.5632 47.3341C75.5242 47.3824 74.7362 46.7394 74.2277 45.487L74.2032 45.4259C73.6884 44.1151 73.8296 43.0643 74.6622 42.3558C74.6773 42.3429 74.6935 42.3313 74.7105 42.3211L74.7368 42.307L77.6781 40.753Z"
              fill="white"/>
        <path fill-rule="evenodd" clip-rule="evenodd"
              d="M21.5427 16.22C21.4216 16.0481 21.2252 15.9491 21.0154 15.9746C20.8006 16.0008 20.621 16.1502 20.5557 16.3562L20.5381 16.4114C20.525 16.4519 20.5093 16.4986 20.4908 16.551C20.4381 16.7005 20.3742 16.8666 20.2987 17.0451C20.0842 17.5528 19.82 18.0594 19.5047 18.5307C18.8245 19.5477 18.0049 20.2556 17.0441 20.5283C16.8939 20.5708 16.8067 20.7271 16.8493 20.8773C16.871 20.9535 18.2741 21.6548 19.7067 21.478C21.0961 21.3066 22.5162 20.259 22.5277 20.1878L22.5452 20.0392L22.5502 19.9895C22.6497 18.9103 22.4608 17.6911 21.7341 16.5101C21.6736 16.4121 21.6099 16.3154 21.5427 16.22Z"
              fill="#E7EAEE"/>
        <path fill-rule="evenodd" clip-rule="evenodd"
              d="M24.4343 16.5338L24.4269 16.5909C24.3262 17.3215 24.0442 18.339 23.534 19.1066C22.906 20.0515 22.0197 20.7742 21.1291 21.24C19.8441 21.9118 18.4456 22.0347 17.0684 21.162L17.0076 21.1228C16.284 20.6495 15.7348 20.4217 14.9813 20.6097C14.2277 20.7978 13.8618 21.3466 13.5366 21.8558L13.5217 21.8773C13.4695 21.947 13.3932 21.9952 13.3073 22.0121L11.8786 22.2384L12.3989 22.8847C12.5555 23.0807 12.6668 23.2219 12.7328 23.3084L13.3046 24.0619C15.0089 26.2971 16.843 28.4312 20.4196 27.6924L20.5408 27.6664C21.4883 27.4557 22.2828 28.0215 23.2794 28.8552L23.4924 29.0345C23.756 29.2577 24.5531 29.9603 24.8793 30.2986L24.9859 30.4104L25.0843 30.5163C25.1048 30.5386 25.1243 30.5601 25.1428 30.5806L25.2445 30.6952L25.307 30.6216C25.9816 29.8093 26.4042 28.5722 26.623 27.5518C26.7055 27.1663 26.753 26.7971 26.7728 26.4565L26.7752 26.4121C26.7803 26.3125 26.7825 26.2255 26.783 26.153V26.099L26.6811 26.129C25.5015 26.4635 24.1742 26.4968 22.8792 26.3474C22.5664 26.3113 25.9981 23.5317 25.2937 19.9321C25.1332 19.1118 25.0313 18.0149 24.7509 17.2704C24.6624 17.0355 24.5708 16.8208 24.4799 16.6289L24.4343 16.5338Z"
              fill="white"/>
        <path fill-rule="evenodd" clip-rule="evenodd"
              d="M77.8273 41.1971L74.8913 42.6244C74.1874 43.2232 74.0677 44.1139 74.5321 45.2963C74.6951 45.7113 75.1028 46.6995 75.1028 46.3114C75.1028 46.1901 77.8273 44.4092 78.3501 44.5834C78.8333 44.7446 77.9651 43.2922 77.7218 42.6244L77.8273 41.1606L77.908 41.0148"
              fill="#E7EAEE"/>
        <path fill-rule="evenodd" clip-rule="evenodd"
              d="M73.91 42.2686C74.1052 42.2686 72.9994 42.7887 73.0563 43.7477C73.1133 44.7067 73.8628 46.4744 73.6806 46.544C73.4983 46.6137 73.1527 46.0984 73.083 45.9161C72.6496 44.7819 72.5676 44.3192 72.583 43.6576C72.6034 42.7916 73.0587 42.2686 73.91 42.2686Z"
              fill="#E7EAEE"/>
        <path d="M78.8304 44.9429C79.2519 44.9429 79.5936 44.1709 79.5936 43.2187C79.5936 42.2665 79.2519 41.4946 78.8304 41.4946C78.4089 41.4946 78.0671 42.2665 78.0671 43.2187C78.0671 44.1709 78.4089 44.9429 78.8304 44.9429Z"
              fill="#E7EAEE"/>
        <path fill-rule="evenodd" clip-rule="evenodd"
              d="M25.5201 61.3973C25.5201 58.4056 25.8526 57.1049 29.4218 55.4722C36.7372 52.5154 36.7372 52.4013 50.7518 46.983C54.4581 45.5574 62.2719 48.9723 65.6697 47.5412C67.9348 46.5872 70.053 45.8787 71.9245 44.9324C72.1057 46.1158 73.2772 48.1194 73.6898 48.4638C71.4983 48.9237 69.3784 49.6349 67.3302 50.5975C62.9024 52.6782 65.5262 52.1112 58.5128 58.725C57.9184 59.2855 55.7344 60.5635 52.5763 61.8947C52.5763 61.8947 46.2163 61.0406 43.6655 59.9796C41.0695 58.8998 37.1359 55.4722 37.1359 55.4722C37.1359 55.4722 32.5482 58.4652 29.9108 59.8106C28.6762 60.4402 25.5201 61.3973 25.5201 61.3973Z"
              fill="white"/>
        <path fill-rule="evenodd" clip-rule="evenodd"
              d="M25.5201 59.8427C25.5201 59.1404 25.4459 58.6502 25.5201 58.1082C25.762 56.341 26.7097 55.4369 29.4413 54.1873C36.7567 51.2305 36.7372 50.8466 50.7518 45.4284C54.4581 44.0027 62.2718 47.4176 65.6695 45.9865C67.9348 45.0325 70.053 44.324 71.9245 43.3777C71.9298 43.4117 71.735 45.0288 71.735 45.0288C71.735 45.0288 67.1151 47.4685 64.0591 47.9858C60.8119 48.5354 56.352 45.9865 51.8987 47.2401C45.1169 49.1492 29.4886 55.1497 27.6399 56.6535C26.1872 57.835 25.5201 59.8427 25.5201 59.8427Z"
              fill="#E7EAEE"/>
        <path fill-rule="evenodd" clip-rule="evenodd"
              d="M21.5427 16.22C21.4216 16.0481 21.2252 15.9491 21.0154 15.9746C20.8006 16.0008 20.621 16.1502 20.5557 16.3562L20.5381 16.4114C20.525 16.4519 20.5093 16.4986 20.4908 16.551C20.4381 16.7005 20.3742 16.8666 20.2987 17.0451C20.0842 17.5528 19.82 18.0594 19.5047 18.5307C18.8245 19.5477 18.0049 20.2556 17.0441 20.5283C16.8939 20.5708 16.8067 20.7271 16.8493 20.8773C16.8919 21.0274 19.2263 19.9636 19.9746 18.845C20.3114 18.3414 20.5918 17.8038 20.8194 17.2653C20.8881 17.1028 20.9479 16.9497 20.999 16.8085L21.024 16.7388C21.044 16.682 21.0612 16.631 21.0759 16.5859C21.0796 16.5538 21.083 16.5431 21.0862 16.5537C22.7055 17.6615 22.0689 20.4108 22.2245 20.4242C22.3729 20.437 22.5045 20.3325 22.5277 20.1878L22.5452 20.0392L22.5502 19.9895C22.6497 18.9103 22.4608 17.6911 21.7341 16.5101C21.6736 16.4121 21.6099 16.3154 21.5427 16.22Z"
              fill="#E7EAEE"/>
        <path fill-rule="evenodd" clip-rule="evenodd"
              d="M24.9147 16.2118L24.9503 16.2755L24.9938 16.3572C25.0201 16.4075 25.0495 16.4659 25.0816 16.5319C25.1927 16.7605 25.3047 17.0191 25.4122 17.3043C25.7146 18.1071 25.9259 18.9735 25.9981 19.8761C26.0961 21.1011 25.9193 22.2571 25.4714 23.3087L25.4331 23.397C25.0693 24.2186 24.5393 24.9714 23.8513 25.6466L23.783 25.7127L23.841 25.7155C24.8318 25.7572 25.8117 25.6684 26.673 25.3938C26.8577 25.3349 27.0591 25.3653 27.2183 25.4759C27.3771 25.5864 27.4758 25.7642 27.4857 25.9574L27.4879 26.0174L27.4893 26.0967V26.1272C27.4893 26.2377 27.4861 26.3618 27.4782 26.4976C27.4565 26.8729 27.4045 27.2776 27.3139 27.7002C27.058 28.8941 26.5464 30.0122 25.7101 30.9543C25.599 31.0794 25.443 31.1543 25.2769 31.1632L25.2386 31.164C25.0614 31.1608 24.8994 31.0874 24.7844 30.9623L24.7001 30.8644L24.6588 30.8175L24.5711 30.7201L24.475 30.6162C24.4415 30.5807 24.4067 30.5441 24.3707 30.5068C24.0637 30.1884 23.7248 29.8728 23.3648 29.5824C22.3673 28.7773 21.4049 28.3228 20.5831 28.3721C19.2389 28.4528 18.1256 28.3901 17.0927 28.1002C15.7575 27.7257 14.709 26.9906 14.0152 25.8203L13.9763 25.7536C13.6171 25.1272 13.0865 24.4056 12.4607 23.6546C12.2673 23.4223 12.0766 23.2016 11.8947 22.9975L11.8174 22.911C11.6935 22.7732 11.592 22.6634 11.5495 22.6187C11.3924 22.4532 11.3378 22.2158 11.4065 21.9987L11.4165 21.9693C11.4919 21.7665 11.6672 21.6161 11.8809 21.5738L13.0266 21.3474L13.0399 21.3282C13.4498 20.7455 14.0352 20.252 14.8127 20.0531C15.6237 19.8458 16.4771 20.0261 17.3365 20.5714L17.3964 20.61C18.5572 21.3692 19.7077 21.3272 20.8016 20.7554C21.5829 20.3468 22.3277 19.653 22.8919 18.804C23.4167 18.0145 23.7285 17.1706 23.7508 16.5045C23.76 16.2262 23.952 15.9872 24.222 15.9191C24.4922 15.8507 24.7749 15.9704 24.9147 16.2118ZM24.4343 16.534L24.4269 16.5911C24.3263 17.3218 24.0442 18.3393 23.5341 19.1069C22.906 20.0518 22.0197 20.7745 21.129 21.2403C19.8442 21.9121 18.4456 22.035 17.0684 21.1623L17.0076 21.1231C16.284 20.6498 15.7348 20.422 14.9813 20.61C14.2279 20.7981 13.8618 21.3469 13.5366 21.8561L13.5217 21.8776C13.4695 21.9472 13.3933 21.9954 13.3073 22.0124L11.8786 22.2387L12.3989 22.885C12.5555 23.081 12.6668 23.2222 12.7328 23.3087L13.3047 24.0622C15.0089 26.2973 16.843 28.4315 20.4196 27.6927L20.5408 27.6667C21.4883 27.456 22.2828 28.0218 23.2794 28.8555L23.4924 29.0348C23.756 29.258 24.5531 29.9606 24.8793 30.2989L24.9859 30.4107L25.0843 30.5166C25.1048 30.5389 25.1243 30.5604 25.1429 30.5809L25.2445 30.6955L25.307 30.6219C25.9816 29.8096 26.4042 28.5725 26.623 27.5521C26.7056 27.1665 26.753 26.7974 26.7728 26.4568L26.7752 26.4124C26.7803 26.3128 26.7825 26.2258 26.7829 26.1533V26.0993L26.681 26.1293C25.5015 26.4638 24.1742 26.4971 22.8792 26.3477C22.5664 26.3116 25.9981 23.532 25.2937 19.9324C25.1332 19.1121 25.0313 18.0152 24.7509 17.2707C24.6625 17.0358 24.5708 16.8211 24.4799 16.6292L24.4343 16.534Z"
              fill="#E7EAEE"/>
        <path fill-rule="evenodd" clip-rule="evenodd"
              d="M15.476 22.896C15.7488 22.896 15.9707 22.6741 15.9707 22.4013C15.9707 22.1286 15.7488 21.9067 15.476 21.9067C15.2032 21.9067 14.9813 22.1286 14.9813 22.4013C14.9813 22.6741 15.2032 22.896 15.476 22.896Z"
              fill="#00160A"/>
        <path d="M15.9 24.8747C16.3293 24.8747 16.6773 24.5899 16.6773 24.2387C16.6773 23.8874 16.3293 23.6027 15.9 23.6027C15.4707 23.6027 15.1227 23.8874 15.1227 24.2387C15.1227 24.5899 15.4707 24.8747 15.9 24.8747Z"
              fill="#FFB61D"/>
        <path d="M15.9 24.8747C16.3293 24.8747 16.6773 24.5899 16.6773 24.2387C16.6773 23.8874 16.3293 23.6027 15.9 23.6027C15.4707 23.6027 15.1227 23.8874 15.1227 24.2387C15.1227 24.5899 15.4707 24.8747 15.9 24.8747Z"
              fill="#FFB61D"/>
        <path fill-rule="evenodd" clip-rule="evenodd"
              d="M24.9147 16.2118L24.9503 16.2755L24.9938 16.3572C25.0201 16.4075 25.0495 16.4659 25.0816 16.5319C25.1927 16.7605 25.3047 17.0191 25.4122 17.3043C25.7146 18.1071 25.9259 18.9735 25.9981 19.8762C26.0961 21.1011 25.9193 22.2571 25.4714 23.3087L25.4331 23.397C25.0693 24.2186 24.5393 24.9714 23.8511 25.6467L23.783 25.7127L23.841 25.7155C24.8318 25.7572 25.8116 25.6684 26.673 25.3938C26.8577 25.3349 27.0591 25.3653 27.2183 25.4759C27.3771 25.5864 27.4758 25.7642 27.4857 25.9574L27.4879 26.0174L27.4893 26.0967V26.1272C27.4893 26.2377 27.4861 26.3618 27.4782 26.4976C27.4564 26.8729 27.4044 27.2776 27.3139 27.7002C27.058 28.8941 26.5464 30.0122 25.7101 30.9543C25.599 31.0794 25.4428 31.1543 25.2769 31.1632L25.2386 31.164C25.0612 31.1608 24.8994 31.0874 24.7844 30.9623L24.7001 30.8644L24.6589 30.8175L24.5711 30.7201L24.4748 30.6162C24.4415 30.5807 24.4067 30.5441 24.3707 30.5068C24.0636 30.1884 23.7248 29.8728 23.3648 29.5824C22.3671 28.7773 21.4049 28.3228 20.5831 28.3721C19.2387 28.4528 18.1256 28.3901 17.0927 28.1002C15.7574 27.7257 14.709 26.9906 14.0152 25.8203L13.9763 25.7536C13.617 25.1272 13.0865 24.4056 12.4607 23.6546C12.2673 23.4223 12.0765 23.2016 11.8947 22.9975L11.8174 22.911C11.6935 22.7732 11.592 22.6634 11.5495 22.6187C11.3924 22.4532 11.3378 22.2158 11.4064 21.9987L11.4165 21.9693C11.4919 21.7665 11.6672 21.6161 11.8808 21.5738L13.0265 21.3474L13.0399 21.3282C13.4498 20.7455 14.0351 20.252 14.8126 20.0531C15.5779 19.8574 16.3811 20.007 17.1914 20.4828C18.0888 20.1819 18.8595 19.4954 19.5047 18.5308C19.82 18.0595 20.0842 17.5528 20.2987 17.0452C20.3742 16.8666 20.4381 16.7007 20.4908 16.551C20.5093 16.4987 20.525 16.4521 20.5383 16.4114L20.5557 16.3562C20.621 16.1502 20.8006 16.0008 21.0154 15.9748C21.2252 15.9491 21.4216 16.0481 21.5427 16.2201C21.61 16.3154 21.6738 16.4122 21.7341 16.5103C22.2982 17.427 22.5383 18.3667 22.5709 19.2461C22.6832 19.1043 22.7904 18.9566 22.8919 18.804C23.4165 18.0145 23.7285 17.1706 23.7506 16.5045C23.76 16.2262 23.952 15.9872 24.222 15.9191C24.4922 15.8507 24.7749 15.9704 24.9147 16.2118ZM20.8016 20.7554C19.739 21.3108 18.6231 21.3664 17.4962 20.6733C18.2549 20.3225 19.4722 19.5962 19.9746 18.8451C20.3114 18.3416 20.5918 17.8038 20.8194 17.2653C20.8881 17.1029 20.9479 16.9498 20.9992 16.8085L21.024 16.739C21.044 16.682 21.0612 16.631 21.0759 16.5861C21.0796 16.5538 21.083 16.5431 21.0862 16.5537C22.1626 17.2902 22.2422 18.7518 22.2203 19.6531C21.7877 20.1149 21.3022 20.4936 20.8016 20.7554ZM21.1291 21.2403C21.5603 21.0147 21.9903 20.7291 22.3907 20.3871C22.4215 20.3693 22.4487 20.3455 22.4707 20.3175C22.8665 19.9686 23.2304 19.5637 23.534 19.1069C24.0442 18.3393 24.3262 17.3218 24.4269 16.5911L24.4343 16.534L24.4799 16.6292C24.5708 16.8211 24.6624 17.0358 24.7509 17.2707C24.946 17.7888 25.0547 18.4775 25.1569 19.125V19.1251C25.2014 19.4079 25.2448 19.6829 25.2937 19.9324C25.8336 22.6914 23.9437 24.9685 23.1723 25.8979C22.9373 26.1812 22.8061 26.3392 22.8792 26.3477C24.1742 26.4971 25.5015 26.4638 26.681 26.1293L26.7829 26.0993V26.1533C26.7825 26.2258 26.7803 26.3128 26.7752 26.4124L26.7728 26.4568C26.753 26.7974 26.7055 27.1665 26.623 27.5521C26.4042 28.5725 25.9816 29.8096 25.307 30.6219L25.2445 30.6955L25.1428 30.5809C25.1243 30.5604 25.1048 30.5389 25.0843 30.5166L24.9859 30.4107L24.8793 30.2989C24.5531 29.9606 23.756 29.258 23.4924 29.0348L23.2794 28.8555C22.2828 28.0218 21.4883 27.456 20.5408 27.6667L20.4196 27.6927C16.843 28.4315 15.0089 26.2973 13.3046 24.0622L12.7328 23.3087C12.6668 23.2222 12.5555 23.081 12.3989 22.885L11.8786 22.2387L13.3073 22.0124C13.3932 21.9954 13.4695 21.9473 13.5217 21.8776L13.5366 21.8561C13.8618 21.3469 14.2277 20.7981 14.9813 20.61C15.7348 20.422 16.284 20.6498 17.0076 21.1231L17.0684 21.1623C18.4456 22.035 19.844 21.9121 21.1291 21.2403ZM77.6779 40.7529C77.9558 40.6178 78.4541 40.8797 78.165 41.3013C77.7274 41.9394 78.2136 43.4212 78.5098 44.3236V44.3237V44.3239C78.6469 44.7412 78.7432 45.0346 78.6885 45.0633C78.5155 45.1536 78.3021 45.0868 78.2116 44.9138C77.7222 43.9773 77.441 43.2336 77.3709 42.6683C77.3362 42.387 77.3284 42.115 77.3481 41.8524L77.3507 41.8221L75.088 42.922L75.0593 42.9483C74.5485 43.4274 74.3238 43.9837 74.6976 44.969L74.7197 45.0263C75.1255 46.0594 75.8123 46.8004 76.5271 46.7696L76.5829 46.7668C78.171 46.7349 79.1202 46.257 79.459 45.675C79.885 44.9433 80.0006 44.099 79.2059 42.456C79.1209 42.2805 78.6851 41.0657 79.3017 41.6928C79.9183 42.3199 80.7779 45.0913 80.2219 46.0461C79.7578 46.8433 78.5668 47.243 76.9345 47.3205C76.944 47.3621 76.9461 47.4062 76.9396 47.4509C76.785 48.5001 76.306 49.1601 75.5052 49.3511C74.8928 49.4971 74.2346 49.3037 73.6317 48.8376C71.5135 49.2924 69.4632 49.9857 67.4804 50.9175L67.1868 51.0565C66.1751 51.5398 65.5951 51.8637 65.1715 52.1786C64.923 52.3632 64.7178 52.5524 64.4972 52.7958L64.4616 52.8364C64.3544 52.9604 64.1212 53.2452 63.856 53.5695L63.8554 53.57L63.8551 53.5704L63.855 53.5706L63.8548 53.5709L63.854 53.5719L63.8536 53.5724C63.5004 54.0036 63.0911 54.5037 62.8466 54.7868L62.7284 54.9229C61.7333 56.063 60.4791 57.3566 58.7552 58.9824L58.7069 59.0266C58.0606 59.6042 56.3431 60.5806 54.2013 61.5652C60.112 61.3552 64.3742 59.0993 67.0285 54.7934C67.1452 54.6039 67.406 54.5683 67.5693 54.7195C72.1334 58.9465 77.4217 60.9027 83.4547 60.5973C89.5036 60.2908 93.9426 58.7187 96.7852 55.8961C96.9236 55.7586 97.1473 55.7594 97.2848 55.8979C97.4223 56.0363 97.4215 56.26 97.2831 56.3975C94.3011 59.3586 87.9701 61.5805 81.7615 61.8948C75.7236 62.2005 72.121 59.7128 67.5144 55.6237L67.4019 55.5231L67.3616 55.585C64.444 60.0063 58.1057 63.2311 51.7803 63.2768L51.582 63.2775C45.1122 63.2775 41.3808 60.1447 37.0159 55.8629L36.9818 55.8294L36.9663 55.8427L36.8522 55.9386L36.6865 56.078L36.585 56.1635C32.4949 59.6054 29.4431 62.1737 24.8523 62.8298L24.7059 62.8503C19.5299 63.8974 11.6796 61.1079 10.4732 59.7405C9.3679 58.4877 10.6572 59.2665 11.0111 59.4803C11.0434 59.4998 11.068 59.5146 11.0822 59.5227C14.508 61.4841 18.458 62.2311 23.1972 61.5848C23.8511 61.4954 24.5011 61.3774 25.1469 61.2304L25.1394 61.1608C24.9325 59.1955 24.9312 58.3365 25.2294 57.3505C25.6349 56.0096 26.6196 54.9906 28.3908 54.1804L28.8785 53.9648C31.0663 53.0006 32.8039 52.2767 34.6062 51.5733L34.7382 51.5218C34.9403 51.4432 35.1451 51.3641 35.3541 51.284L35.5589 51.2058C35.633 51.1796 36.5984 50.7969 38.066 50.215C41.4512 48.8729 47.5084 46.4717 51.4597 44.9439C52.3145 44.6151 53.3495 44.5059 54.619 44.5715L54.7284 44.5775C55.6794 44.6335 56.6147 44.7625 58.1481 45.0278L59.4954 45.2639C60.9997 45.5242 61.7287 45.6269 62.5799 45.6876C62.8474 45.7067 63.1017 45.7303 63.3433 45.7527C64.2383 45.8358 64.9586 45.9028 65.5325 45.6611C66.0415 45.4467 66.5406 45.2397 67.0296 45.0369L67.0297 45.0367L67.0336 45.0352H67.0337C68.6374 44.3699 70.1333 43.7495 71.5215 43.0593C71.6167 42.442 71.8599 41.9862 72.2411 41.686C72.8291 41.223 73.6614 41.2152 74.3833 41.4959C74.5652 41.5667 74.6552 41.7715 74.5846 41.9533C74.5617 42.0122 74.4147 41.9851 74.2066 41.9468C73.7716 41.8665 73.0699 41.737 72.6783 42.2412C72.2427 42.8021 72.0979 43.6613 72.4838 45.353C72.7633 46.5791 74.5758 48.6638 75.3413 48.6638C76.1948 48.6638 76.3943 47.8351 76.5076 47.3652L76.5146 47.3358C75.4996 47.3621 74.7283 46.7197 74.2277 45.487L74.2033 45.426C73.6884 44.115 73.8296 43.0641 74.6622 42.3556C74.6773 42.3428 74.6935 42.3312 74.7105 42.3212L74.7368 42.307L77.6779 40.7529ZM72.9797 48.1988C72.944 48.1555 72.9086 48.1112 72.8737 48.0658C72.8603 48.0517 72.8477 48.0374 72.8367 48.0241C72.8045 47.985 72.7715 47.9452 72.7378 47.9048C72.464 47.5759 72.1467 47.1948 71.8982 46.6453L71.8622 46.5651C71.4636 45.6723 71.4162 44.6694 71.4406 43.8425L71.4443 43.7465L71.4232 43.7571C69.7765 44.572 67.9853 45.3896 66.0494 46.2098L65.8068 46.3124C64.9779 46.6615 63.9427 46.9081 62.631 46.8233L62.5297 46.8164C61.6335 46.7525 60.8798 46.6454 59.2992 46.3711L58.1192 46.1642C54.7927 45.5882 53.128 45.4983 51.7564 46.0112C51.7564 46.0112 31.3008 53.7061 28.6809 54.8246C27.0877 55.5535 26.5471 56.2394 25.8882 57.3505C25.5473 57.9254 25.5818 59.511 25.6058 60.6122V60.6125C25.6097 60.7971 25.6134 60.9681 25.6151 61.1185C29.4828 60.1512 33.2008 58.1402 36.7713 55.0813C36.912 54.9607 37.122 54.9694 37.2524 55.1011C37.5412 55.3932 37.8349 55.6753 38.1334 55.9475L52.8638 49.7935C52.9042 49.7765 52.9459 49.7677 52.9871 49.7662C53.0981 49.7139 53.2178 49.6706 53.3461 49.6364C54.6306 49.295 55.6564 49.8506 56.365 51.2181L57.649 50.2815C57.8384 50.1434 58.1074 50.2245 58.1886 50.4443C59.3603 53.6109 59.019 55.7806 57.0896 56.8276C55.1439 57.8834 53.4518 57.0128 52.1326 54.3739C52.0658 54.2401 52.0921 54.0853 52.1846 53.981C51.8702 52.7035 51.8118 51.6856 52.0258 50.9486L39.1201 56.7972C41.0498 58.3639 43.1688 59.5456 45.4787 60.3426C45.5315 60.292 45.5888 60.2484 45.645 60.2178C47.5906 59.152 52.3841 57.9071 53.5682 57.5996C53.6706 57.573 53.746 57.5534 53.7902 57.5415C54.3458 57.3927 53.7766 57.9118 53.6089 57.9892L53.5875 57.9983L46.5912 60.6924C48.6725 61.2853 50.9011 61.5815 53.278 61.5815C53.4133 61.5815 53.5475 61.5805 53.6811 61.5784L53.8375 61.4766H53.8377L53.8378 61.4765L53.8381 61.4763C55.3343 60.5038 57.836 58.8778 58.2703 58.4682L58.473 58.2766C59.9135 56.8788 60.9855 55.5379 61.9214 54.3674C62.948 53.0833 63.8107 52.0042 64.816 51.2803C65.5976 50.7175 65.8808 50.5889 66.5467 50.2867C66.7247 50.2059 66.9301 50.1126 67.1798 49.9953C68.9457 49.1654 70.951 48.685 72.8334 48.2338L72.9797 48.1988ZM53.5277 50.3194C54.5455 50.0488 55.3078 50.5268 55.8889 51.8614L54.3876 53.0516L54.3861 53.0522L52.8349 53.6643L52.7962 53.494C52.3714 51.5685 52.6481 50.5533 53.5277 50.3194ZM55.8889 51.8614L54.3889 53.0512C54.419 53.0393 54.4499 53.0318 54.4809 53.0284C54.5093 53.0255 54.5377 53.0259 54.5654 53.0297C54.6313 53.0385 54.6939 53.0659 54.7453 53.1088C54.7791 53.1371 54.8079 53.1719 54.8297 53.2124C55.1837 53.85 55.4575 54.0018 55.7354 53.8459C56.0296 53.681 56.1221 53.0607 55.9071 51.9525L55.8889 51.8614ZM36.427 66.3694C36.5912 66.2637 37.7238 65.7111 36.7151 66.7499C35.7065 67.7886 27.8506 72.1954 23.61 72.4394C19.5228 72.6746 15.8939 70.9677 12.7366 68.7337L12.6319 68.659L12.6111 68.6859C12.4713 68.8631 12.3277 69.024 12.1801 69.1683L12.1166 69.2292C11.8492 69.4802 11.3864 69.7644 10.7176 70.0947C10.5427 70.1811 9.92444 70.2606 10.2443 69.9343C10.5642 69.6081 11.2644 69.1385 11.6722 68.8691C11.9387 68.6931 12.0228 68.4873 12.1063 68.2831C12.1506 68.1748 12.1947 68.067 12.2656 67.9643C12.3796 67.7995 12.6078 67.7623 12.7682 67.8824C15.8808 70.2153 19.5167 71.4589 23.61 71.2233C27.7201 70.9867 31.9651 69.2404 36.427 66.3694ZM60.6019 68.6222C60.7452 68.4899 60.7452 67.5458 60.6019 67.6781C59.0143 69.143 55.6906 70.4315 51.5892 70.6675C47.4826 70.9039 44.254 70.2582 41.897 68.7426C41.7329 68.637 40.9204 68.3579 41.4087 68.8487C41.897 69.3394 47.3855 71.9 51.6298 71.6556L51.7568 71.6481C55.9389 71.3929 58.8872 70.2044 60.6019 68.6222ZM57.7029 51.1956L57.6817 51.1322L56.6178 51.9084L56.6374 52.018C56.8513 53.2693 56.7053 54.087 56.1122 54.4443L56.0811 54.4624C55.4626 54.8091 54.8804 54.5642 54.3937 53.8516L54.3723 53.8199L52.9419 54.3977L52.975 54.4577C54.0683 56.4307 55.2803 56.9795 56.7065 56.231L56.7525 56.2065C58.1848 55.4293 58.5377 53.8431 57.7525 51.3494L57.7029 51.1956ZM15.9707 22.4014C15.9707 22.6741 15.7488 22.896 15.476 22.896C15.2032 22.896 14.9813 22.6741 14.9813 22.4014C14.9813 22.1286 15.2032 21.9067 15.476 21.9067C15.7488 21.9067 15.9707 22.1286 15.9707 22.4014Z"
              fill="#00160A"/>
    </g>
    <defs>
        <clipPath id="clip0_127_479">
            <rect width="106" height="106" fill="white"/>
        </clipPath>
    </defs>
</svg>
